<svg width="676" height="495" viewBox="0 0 676 495" fill="none" xmlns="http://www.w3.org/2000/svg">
<g filter="url(#filter0_d_643_5676)">
<g opacity="0.8">
<g opacity="0.5">
<g opacity="0.5">
<g opacity="0.5">
<g opacity="0.5">
<path opacity="0.5" d="M393.246 129.483C370.546 125.763 349.036 115.501 330.47 99.9359C302.74 76.6982 244.721 37.1512 189.373 56.8461C113.024 84.0144 112.684 162.616 132.572 205.307C152.459 247.999 293.471 373.034 476.296 353.14C639.895 335.342 671.769 131.559 584.519 94.6846C508.85 62.7158 483.026 144.21 393.246 129.483Z" fill="#B8B6B5"/>
</g>
</g>
</g>
</g>
<g opacity="0.5">
<g opacity="0.5">
<g opacity="0.5">
<g opacity="0.5">
<path opacity="0.5" d="M628.767 107.808C632.687 107.808 635.865 104.011 635.865 99.328C635.865 94.6448 632.687 90.8484 628.767 90.8484C624.847 90.8484 621.669 94.6448 621.669 99.328C621.669 104.011 624.847 107.808 628.767 107.808Z" fill="#B8B6B5"/>
</g>
</g>
</g>
</g>
<g opacity="0.8">
<g opacity="0.8">
<g opacity="0.8">
<g opacity="0.8">
<path opacity="0.8" d="M165.635 43.4717C167.815 43.0315 170.014 44.3626 170.779 46.6686C172.081 50.5992 168.665 55.0119 164.059 53.0309C160.085 49.7711 161.822 44.2578 165.635 43.4717Z" fill="#B8B6B5"/>
</g>
</g>
</g>
</g>
<g opacity="0.8">
<g opacity="0.8">
<path opacity="0.8" d="M615.931 30.8033C619.54 26.796 619.54 20.2989 615.931 16.2916C612.323 12.2843 606.472 12.2843 602.863 16.2916C599.255 20.2989 599.255 26.7961 602.863 30.8034C606.472 34.8107 612.323 34.8107 615.931 30.8033Z" fill="#B8B6B5"/>
</g>
</g>
<g opacity="0.8">
<g opacity="0.8">
<path opacity="0.8" d="M193.649 35.3798C195.036 40.8931 192.148 46.6161 187.183 48.1569C182.218 49.6977 177.065 46.4903 175.678 40.977C174.29 35.4637 177.178 29.7407 182.143 28.1999C187.108 26.6487 192.261 29.8665 193.649 35.3798Z" fill="#B8B6B5"/>
</g>
</g>
<g opacity="0.8">
<g opacity="0.8">
<g opacity="0.8">
<g opacity="0.8">
<path opacity="0.8" d="M562.989 344.22C565.056 343.329 567.444 344.188 568.577 346.295C570.521 349.89 567.897 354.921 563.037 353.936C558.591 351.546 559.365 345.771 562.989 344.22Z" fill="#B8B6B5"/>
</g>
</g>
</g>
</g>
<g opacity="0.8">
<g opacity="0.8">
<path opacity="0.8" d="M589.153 330.478C591.447 335.604 589.559 341.83 584.934 344.366C580.309 346.903 574.712 344.817 572.428 339.681C570.134 334.556 572.022 328.33 576.647 325.793C581.262 323.256 586.859 325.353 589.153 330.478Z" fill="#B8B6B5"/>
</g>
</g>
<g opacity="0.8">
<g opacity="0.8">
<path opacity="0.8" d="M597.676 7.83427C597.676 11.3246 595.128 14.1442 591.994 14.1442C588.851 14.1442 586.312 11.3142 586.312 7.83427C586.312 4.3439 588.86 1.52435 591.994 1.52435C595.128 1.52435 597.676 4.35438 597.676 7.83427Z" fill="#B8B6B5"/>
</g>
</g>
</g>
<g opacity="0.8">
<path opacity="0.8" d="M612.816 122.199C612.806 65.8079 570.521 4.00847 517.901 0.277022C516.976 0.214133 516.042 0.151243 515.098 0.109317C439.655 -3.80031 433.907 98.3847 365.648 109.914C297.388 121.444 245.259 63.2609 163.587 101.215C90.2301 135.311 70.3619 326.873 285.892 334.556C458.334 340.698 612.834 290.46 612.816 122.199Z" fill="#B8B6B5"/>
</g>
<path d="M177.436 467.581C267.839 467.581 341.125 463.138 341.125 457.657C341.125 452.177 267.839 447.734 177.436 447.734C87.0338 447.734 13.748 452.177 13.748 457.657C13.748 463.138 87.0338 467.581 177.436 467.581Z" fill="#D1CDCA"/>
<path d="M201.329 147.479L201.535 148.45L201.689 149.229L201.959 150.698C202.126 151.655 202.28 152.588 202.421 153.52C202.691 155.385 202.923 157.211 203.128 159.037C203.527 162.69 203.822 166.304 203.989 169.931C204.156 173.546 204.208 177.16 204.169 180.774C204.118 184.388 203.964 187.99 203.719 191.592C203.462 195.193 203.09 198.795 202.64 202.383C202.383 204.171 202.151 205.972 201.856 207.76C201.714 208.654 201.573 209.548 201.419 210.442L200.918 213.111C200.763 214.005 200.558 214.886 200.378 215.78C200.185 216.662 200.018 217.556 199.799 218.437C199.388 220.199 198.99 221.975 198.514 223.737C198.283 224.618 198.064 225.499 197.82 226.368L197.075 228.999L196.882 229.65L196.792 229.982L196.599 230.646C196.406 231.272 196.214 231.808 195.995 232.358C195.79 232.869 195.571 233.392 195.353 233.852C195.134 234.337 194.903 234.759 194.671 235.193L194.337 235.793C194.222 235.998 194.106 236.189 193.99 236.368L193.643 236.93L193.309 237.453C193.078 237.811 192.859 238.118 192.628 238.437C191.728 239.688 190.841 240.736 189.98 241.694C189.119 242.651 188.284 243.494 187.448 244.286C185.79 245.87 184.184 247.211 182.603 248.475C179.441 250.978 176.344 253.086 173.246 255.052C167.077 258.973 160.947 262.358 154.777 265.538C148.621 268.718 142.426 271.655 136.206 274.465C133.083 275.857 129.959 277.223 126.823 278.552C125.255 279.216 123.687 279.88 122.107 280.531L119.716 281.489L117.261 282.46L106.491 258.271L108.586 257.211L110.732 256.1L115.038 253.865C117.904 252.358 120.77 250.838 123.598 249.28C129.278 246.202 134.895 243.022 140.357 239.778C143.082 238.156 145.768 236.483 148.39 234.81C151.012 233.137 153.569 231.425 155.986 229.688C158.402 227.952 160.702 226.189 162.656 224.478C163.633 223.622 164.52 222.779 165.226 222.038C165.921 221.298 166.447 220.608 166.55 220.378C166.55 220.365 166.576 220.327 166.563 220.327C166.55 220.34 166.55 220.34 166.537 220.353L166.499 220.391C166.486 220.416 166.473 220.429 166.46 220.455C166.409 220.519 166.396 220.57 166.332 220.685C166.293 220.774 166.216 220.902 166.165 221.042C166.088 221.208 166.036 221.362 165.959 221.579L165.908 221.732C165.895 221.783 165.908 221.732 165.908 221.719L165.921 221.655L165.985 221.387L166.113 220.838L166.615 218.667C166.782 217.939 166.923 217.211 167.077 216.483C167.399 215.027 167.643 213.558 167.913 212.09C168.054 211.362 168.157 210.621 168.272 209.88C168.388 209.139 168.517 208.411 168.607 207.671C169.044 204.72 169.378 201.745 169.648 198.756C169.905 195.768 170.072 192.779 170.2 189.778C170.303 186.777 170.329 183.775 170.277 180.787C170.239 177.786 170.11 174.797 169.905 171.809C169.712 168.833 169.442 165.87 169.082 162.945C168.902 161.489 168.697 160.046 168.478 158.641C168.375 157.939 168.26 157.249 168.144 156.572L167.964 155.602L167.823 154.912L201.329 147.479Z" fill="#EA9B7A"/>
<path d="M165.509 155.717L159.391 201.821C168.53 206.904 177.192 210.544 185.161 211.987L165.509 155.717Z" fill="#A92F4B"/>
<path d="M178.503 226.994C178.374 226.994 178.233 226.968 178.117 226.892C173.362 224.325 166.82 222.166 166.756 222.141C166.332 222 166.1 221.54 166.242 221.119C166.383 220.697 166.846 220.468 167.27 220.608C167.54 220.697 174.017 222.83 178.901 225.474C179.3 225.691 179.441 226.176 179.223 226.572C179.068 226.84 178.799 226.994 178.503 226.994Z" fill="#D46A43"/>
<path d="M167.463 222.332C167.051 222.332 166.704 222.026 166.653 221.617C166.602 221.17 166.923 220.774 167.373 220.723C170.753 220.353 175.187 220.327 175.367 220.327C175.817 220.327 176.177 220.685 176.177 221.132C176.177 221.579 175.817 221.936 175.367 221.949C175.316 221.949 170.83 221.975 167.54 222.332C167.527 222.332 167.488 222.332 167.463 222.332Z" fill="#D46A43"/>
<path d="M79.4623 411.616L71.0183 425.307L54.9399 418.245L62.2401 403.519L79.4623 411.616Z" fill="#EA9B7A"/>
<path d="M4.03154 426.022L64.8363 452.766C65.646 452.153 66.4171 451.093 67.1369 449.764C69.7973 444.822 71.7894 435.946 73.2803 430.441C73.4474 429.803 73.6145 429.203 73.7816 428.666C74.0515 427.759 74.3085 427.006 74.5399 426.482C76.4035 422.28 72.355 421.361 72.355 421.361C63.5253 424.656 60.5693 412.6 55.1841 413.749C55.1841 413.749 52.8707 414.222 46.1232 416.418C39.3757 418.615 29.8906 417.849 21.6136 417.683C10.9204 417.466 6.69199 420.084 5.04688 422.434C3.72308 424.311 4.03154 426.022 4.03154 426.022Z" fill="#FAAF3A"/>
<path d="M4.03159 426.023L64.8363 452.766C65.646 452.153 66.4172 451.093 67.1369 449.764L5.03407 422.447C3.72313 424.311 4.03159 426.023 4.03159 426.023Z" fill="#C77E2E"/>
<path d="M58.6286 450.033L60.4408 450.824C59.554 447.989 59.2584 444.107 61.4818 439.713C64.4379 433.877 69.8359 431.438 73.2675 430.441C73.4346 429.803 73.6017 429.203 73.7687 428.666C70.1572 429.535 63.6025 432.012 60.0681 439.011C57.9474 443.213 57.9346 447.031 58.6286 450.033Z" fill="#C77E2E"/>
<path d="M45.5448 420.441C45.9947 420.633 46.5345 420.518 46.8558 420.109C47.2285 419.637 47.1385 418.947 46.663 418.577L43.2828 415.971C42.8073 415.601 42.1132 415.691 41.7405 416.163C41.3678 416.636 41.4578 417.325 41.9333 417.696L45.3135 420.301C45.3906 420.365 45.4677 420.416 45.5448 420.441Z" fill="white"/>
<path d="M50.7244 418.96C51.1742 419.152 51.714 419.037 52.0353 418.628C52.4081 418.155 52.3181 417.466 51.8425 417.095L48.4624 414.49C47.9868 414.12 47.2928 414.209 46.9201 414.682C46.5474 415.154 46.6373 415.844 47.1129 416.214L50.493 418.82C50.5702 418.883 50.6473 418.934 50.7244 418.96Z" fill="white"/>
<path d="M40.7766 420.965C41.2265 421.157 41.7663 421.042 42.0876 420.633C42.4603 420.16 42.3703 419.471 41.8948 419.1L38.5146 416.495C38.0391 416.125 37.345 416.214 36.9723 416.687C36.5996 417.159 36.6896 417.849 37.1651 418.219L40.5453 420.825C40.6224 420.888 40.6995 420.939 40.7766 420.965Z" fill="white"/>
<path d="M36.0341 421.412C36.4839 421.604 37.0237 421.489 37.345 421.08C37.7177 420.607 37.6278 419.918 37.1522 419.547L33.7721 416.942C33.2965 416.572 32.6025 416.661 32.2298 417.134C31.857 417.606 31.947 418.296 32.4225 418.666L35.8027 421.272C35.8798 421.323 35.957 421.374 36.0341 421.412Z" fill="white"/>
<path d="M31.0216 421.54C31.4715 421.731 32.0113 421.616 32.3326 421.208C32.7053 420.735 32.6153 420.045 32.1398 419.675L28.7596 417.07C28.2841 416.699 27.59 416.789 27.2173 417.261C26.8446 417.734 26.9346 418.424 27.4101 418.794L30.7903 421.399C30.8674 421.463 30.9445 421.501 31.0216 421.54Z" fill="white"/>
<path d="M25.7907 421.221C26.2405 421.412 26.7803 421.297 27.1016 420.888C27.4743 420.416 27.3844 419.726 26.9088 419.356L23.5286 416.751C23.0531 416.38 22.3591 416.47 21.9864 416.942C21.6136 417.415 21.7036 418.104 22.1791 418.475L25.5593 421.08C25.6364 421.144 25.7136 421.195 25.7907 421.221Z" fill="white"/>
<path d="M117.21 279.471C122.852 273.954 167.373 261.617 196.933 269.816C200.326 276.291 204.632 292.702 194.042 307.888C155.189 314.197 133.507 327.185 133.507 327.185C133.507 327.185 119.729 358.82 111.542 370.429C103.355 382.038 84.5776 418.909 84.5776 418.909L56.2894 406.904C56.2894 406.904 101.851 294.49 117.21 279.471Z" fill="#39393B"/>
<path d="M87.5979 411.961C87.4951 411.961 87.3923 411.936 87.2895 411.897L59.6054 400.467C59.1941 400.301 58.9884 399.816 59.1684 399.407C59.3355 398.998 59.811 398.794 60.2351 398.973L87.9192 410.403C88.3305 410.569 88.5361 411.054 88.3562 411.463C88.2148 411.77 87.9192 411.961 87.5979 411.961Z" fill="#585859"/>
<path d="M82.9453 409.65C82.8425 409.65 82.7397 409.637 82.6497 409.599C82.2256 409.433 82.0328 408.96 82.187 408.551C82.2384 408.411 88.0349 394.043 101.543 373.673C114.961 353.443 128.996 319.229 129.137 318.884C129.304 318.475 129.78 318.271 130.204 318.437C130.615 318.603 130.821 319.075 130.653 319.497C130.512 319.842 116.426 354.197 102.918 374.567C89.5001 394.797 83.7679 409.011 83.7165 409.152C83.5751 409.458 83.2666 409.65 82.9453 409.65Z" fill="#585859"/>
<path d="M150.845 414.03L148.711 429.943H131.129L131.81 413.558L150.845 414.03Z" fill="#EA9B7A"/>
<path d="M87.752 457.542H154.25C154.739 456.648 155.009 455.384 155.124 453.877C155.536 448.283 153.749 439.369 152.862 433.749C152.76 433.098 152.67 432.485 152.592 431.923C152.464 430.978 152.4 430.199 152.4 429.624C152.4 425.039 148.313 425.818 148.313 425.818C141.578 432.37 133.969 422.536 129.522 425.767C129.522 425.767 127.607 427.134 122.325 431.846C117.043 436.572 108.072 439.675 100.425 442.855C90.5539 446.955 87.7649 451.042 87.2122 453.864C86.7753 456.099 87.752 457.542 87.752 457.542Z" fill="#FAAF3A"/>
<path d="M87.7522 457.542H154.251C154.739 456.648 155.009 455.384 155.124 453.877H87.1995C86.7754 456.099 87.7522 457.542 87.7522 457.542Z" fill="#C77E2E"/>
<path d="M147.464 457.542H149.444C147.477 455.307 145.627 451.872 145.871 446.968C146.192 440.441 150.138 436.035 152.875 433.749C152.772 433.098 152.682 432.485 152.605 431.923C149.649 434.171 144.675 439.075 144.29 446.891C144.046 451.565 145.601 455.065 147.464 457.542Z" fill="#C77E2E"/>
<path d="M123.443 435.742C123.932 435.742 124.381 435.41 124.51 434.911C124.651 434.324 124.304 433.736 123.713 433.596L119.562 432.574C118.971 432.434 118.379 432.779 118.238 433.366C118.097 433.954 118.457 434.541 119.035 434.682L123.186 435.703C123.263 435.729 123.353 435.742 123.443 435.742Z" fill="white"/>
<path d="M127.569 432.306C128.057 432.306 128.507 431.974 128.636 431.476C128.777 430.888 128.43 430.301 127.839 430.16L123.688 429.139C123.096 428.998 122.505 429.356 122.364 429.931C122.222 430.518 122.582 431.106 123.161 431.246L127.312 432.268C127.389 432.293 127.479 432.306 127.569 432.306Z" fill="white"/>
<path d="M119.292 438.143C119.78 438.143 120.23 437.811 120.359 437.312C120.5 436.725 120.153 436.137 119.562 435.997L115.41 434.975C114.819 434.835 114.228 435.18 114.087 435.767C113.945 436.355 114.292 436.942 114.884 437.083L119.035 438.104C119.112 438.13 119.202 438.143 119.292 438.143Z" fill="white"/>
<path d="M115.141 440.454C115.629 440.454 116.079 440.122 116.207 439.624C116.349 439.037 116.002 438.449 115.411 438.309L111.259 437.287C110.668 437.146 110.077 437.491 109.935 438.079C109.794 438.666 110.154 439.254 110.732 439.394L114.884 440.416C114.961 440.441 115.051 440.454 115.141 440.454Z" fill="white"/>
<path d="M110.604 442.587C111.092 442.587 111.542 442.255 111.671 441.757C111.812 441.169 111.452 440.582 110.874 440.441L106.722 439.42C106.131 439.279 105.54 439.624 105.399 440.212C105.257 440.799 105.617 441.386 106.195 441.527L110.347 442.549C110.424 442.574 110.514 442.587 110.604 442.587Z" fill="white"/>
<path d="M105.694 444.4C106.182 444.4 106.632 444.068 106.761 443.57C106.902 442.983 106.555 442.395 105.964 442.255L101.813 441.233C101.221 441.093 100.63 441.438 100.489 442.025C100.348 442.613 100.707 443.2 101.286 443.34L105.437 444.362C105.514 444.388 105.604 444.4 105.694 444.4Z" fill="white"/>
<path d="M284.073 282.345C284.047 282.613 284.008 282.868 283.983 283.111C283.841 283.213 283.713 283.315 283.584 283.418C273.264 291.285 261.221 296.521 248.921 299.497C248.484 299.599 248.06 299.701 247.623 299.803C245.515 300.289 243.395 300.71 241.274 301.055C238.408 301.527 235.542 301.898 232.702 302.14C230.183 302.358 227.676 302.498 225.209 302.536C214.567 302.728 204.478 301.349 195.944 298.654C195.622 298.552 195.288 298.45 194.967 298.335C192.705 297.581 190.571 296.738 188.566 295.806C188.258 295.665 187.95 295.525 187.654 295.372C186.407 294.771 185.212 294.12 184.081 293.443C184.261 289.369 184.312 284.49 184.274 279.28C184.274 278.845 184.274 278.411 184.261 277.977C184.184 270.723 183.965 262.894 183.683 255.742C183.657 255.397 183.644 255.065 183.644 254.733C183.49 250.991 183.31 247.441 183.156 244.286C183.13 243.954 183.117 243.609 183.104 243.29C182.963 240.621 182.821 238.233 182.693 236.279C182.654 235.781 182.629 235.295 182.59 234.797C182.564 234.414 182.539 234.031 182.513 233.66C182.41 232.281 182.294 230.94 182.179 229.612C181.999 227.492 181.793 225.436 181.575 223.443C181.318 221.17 181.048 218.948 180.765 216.815C180.444 214.516 180.122 212.294 179.775 210.161C179.403 207.875 179.017 205.678 178.606 203.571C177.179 196.138 175.573 189.753 173.966 184.235C173.85 183.852 173.748 183.495 173.632 183.111C172.976 180.915 172.334 178.884 171.704 176.968C171.563 176.547 171.421 176.138 171.293 175.717C167.72 165.18 164.764 158.82 164.712 154.555C164.61 145.679 171.139 142.831 177.95 139.255C178.272 139.089 178.593 138.923 178.914 138.744C180.058 138.131 181.215 137.479 182.32 136.777C182.796 136.483 183.258 136.177 183.708 135.857C184.03 135.64 184.325 135.41 184.621 135.193C187.32 133.124 189.685 130.532 191.227 126.854L216.97 121.464C216.97 121.464 219.438 122.728 223.564 123.827C223.949 123.929 224.348 124.031 224.772 124.133C225.26 124.248 225.761 124.363 226.288 124.465C226.61 124.529 226.957 124.593 227.291 124.657C227.548 124.708 227.818 124.759 228.088 124.797C230.555 125.181 233.409 125.423 236.634 125.359C236.956 125.347 237.29 125.347 237.611 125.334C237.843 125.321 238.074 125.308 238.305 125.308C240.49 125.193 242.572 125.474 244.577 126.113C244.963 126.228 245.336 126.368 245.708 126.522C254.075 129.842 260.656 139.778 264.91 155.04C266.092 159.28 267.262 163.418 268.393 167.454C268.521 167.901 268.637 168.335 268.765 168.769C269.01 169.65 269.254 170.532 269.498 171.413C269.588 171.732 269.678 172.051 269.768 172.371C270.642 175.5 271.49 178.59 272.313 181.643C272.313 181.643 272.313 181.643 272.313 181.656C272.403 181.975 272.493 182.307 272.57 182.626C272.57 182.626 272.57 182.626 272.57 182.639C272.621 182.818 272.66 182.984 272.711 183.15L273.174 184.938C276.027 195.857 278.405 206.381 279.934 216.994C280.256 219.203 280.538 221.413 280.77 223.635C280.834 224.171 280.898 224.772 280.962 225.448C280.975 225.576 280.988 225.691 281.001 225.819C281.027 226.049 281.052 226.279 281.078 226.521C281.091 226.636 281.104 226.764 281.117 226.879C281.528 230.902 282.055 236.47 282.582 242.613C282.608 242.932 282.646 243.264 282.672 243.597C283.854 257.849 284.921 274.861 284.073 282.345Z" fill="#DF615C"/>
<path d="M205.724 141.886C216.006 139.727 221.559 126.956 221.79 126.394C221.944 126.024 221.777 125.589 221.404 125.436C221.032 125.283 220.595 125.449 220.44 125.819C220.389 125.947 214.747 138.961 204.825 140.557C195.07 142.128 191.188 135.002 191.021 134.695C190.828 134.338 190.391 134.197 190.032 134.389C189.672 134.58 189.53 135.015 189.723 135.372C189.762 135.462 194.234 143.75 205.069 142C205.287 141.975 205.506 141.924 205.724 141.886Z" fill="#A92F4B"/>
<path d="M216.148 277.824C225.813 275.806 235.799 270.863 245.785 263.111C259.486 252.473 268.483 240.136 268.573 240.008C268.804 239.676 268.74 239.229 268.406 238.986C268.072 238.756 267.609 238.82 267.378 239.152C267.288 239.28 258.394 251.464 244.86 261.975C232.445 271.617 213.449 281.783 193.502 275.448C193.116 275.321 192.705 275.538 192.576 275.921C192.448 276.304 192.666 276.713 193.052 276.84C200.404 279.178 208.166 279.497 216.148 277.824Z" fill="#A92F4B"/>
<path d="M210.364 270.493C210.377 270.493 210.377 270.493 210.364 270.493C225.427 267.083 233.511 244.503 233.858 243.545C233.987 243.162 233.794 242.754 233.408 242.613C233.023 242.485 232.612 242.677 232.47 243.06C232.393 243.29 224.309 265.831 210.056 269.063C209.657 269.152 209.413 269.548 209.503 269.944C209.593 270.327 209.979 270.57 210.364 270.493Z" fill="#A92F4B"/>
<path d="M182.564 234.784C184.428 233.507 186.189 231.924 187.577 230.123C190.931 225.781 191.381 221.336 188.849 217.607C188.335 216.866 187.872 216.189 187.435 215.551C182.256 208.041 181.716 207.262 182.166 194.912C182.307 191.03 181.202 187.965 178.889 185.845C177.333 184.401 175.431 183.571 173.606 183.086C173.722 183.456 173.825 183.827 173.94 184.21C175.457 184.67 176.974 185.41 178.22 186.56C180.315 188.488 181.305 191.298 181.176 194.887C180.714 207.556 181.382 208.526 186.613 216.113C187.05 216.751 187.513 217.428 188.027 218.169C191.111 222.677 188.579 227.224 186.793 229.535C185.597 231.081 184.094 232.486 182.487 233.648C182.513 234.018 182.551 234.401 182.564 234.784Z" fill="#A92F4B"/>
<path d="M281.104 226.828C279.099 227.99 277.158 228.718 275.307 229.114C270.308 230.161 265.977 228.654 263.188 225.87C259.859 222.537 258.561 216.802 262.532 212.307C266.362 207.952 264.717 205.64 262.635 202.703C260.579 199.816 258.021 196.215 260.681 189.893C262.211 186.253 264.563 183.763 267.673 182.511C269.228 181.885 270.809 181.63 272.3 181.592C272.39 181.911 272.48 182.243 272.557 182.562C271.105 182.575 269.55 182.805 268.033 183.418C265.18 184.567 263.008 186.879 261.581 190.263C259.126 196.087 261.324 199.152 263.432 202.128C265.578 205.155 267.609 208.016 263.265 212.933C260.064 216.56 260.309 221.592 263.882 225.155C267.48 228.756 273.894 230.008 280.988 225.729C281.014 225.959 281.04 226.189 281.065 226.432C281.078 226.585 281.091 226.713 281.104 226.828Z" fill="#A92F4B"/>
<path d="M213.963 230.506C216.443 234.746 221.816 236.777 226.725 235.359C227.471 235.142 228.255 234.861 229.039 234.529C235.349 231.847 242.624 225.525 245.413 218.169C247.559 212.498 246.904 206.687 243.498 201.387C238.46 193.546 235.542 186.253 235.054 180.327C234.758 176.815 232.329 174.095 228.872 173.392C225.389 172.69 222.073 174.248 220.415 177.364C220.325 177.53 220.235 177.696 220.145 177.862C215.904 186.087 218.435 192.039 220.672 197.288C223.011 202.779 225.029 207.517 218.641 213.673C212.832 219.267 211.084 225.563 213.963 230.506ZM219.335 214.363C226.224 207.735 223.962 202.46 221.584 196.892C219.322 191.592 216.996 186.125 221.032 178.297C221.122 178.131 221.199 177.965 221.289 177.811C222.06 176.368 223.229 175.308 224.618 174.721C225.851 174.197 227.252 174.044 228.679 174.337C231.712 174.963 233.833 177.339 234.09 180.404C234.385 183.852 235.401 187.62 237.161 191.694C238.55 194.925 240.4 198.322 242.688 201.898C245.965 207.007 246.569 212.358 244.513 217.824C241.493 225.819 232.959 232.537 226.468 234.414C221.97 235.717 217.086 233.865 214.824 230.008C212.176 225.487 213.86 219.637 219.335 214.363Z" fill="#A92F4B"/>
<path d="M171.254 175.691C171.396 176.1 171.524 176.509 171.666 176.93C175.097 178.297 178.259 178.246 180.778 177.709C182.063 177.441 183.181 177.045 184.094 176.662C190.379 173.967 194.646 168.182 194.543 164.682C194.504 163.367 193.836 162.409 192.666 161.988C185.906 159.536 183.156 155.104 182.127 145.027C181.845 142.294 180.752 140.174 178.863 138.705C178.542 138.871 178.22 139.038 177.899 139.216C177.976 139.267 178.053 139.331 178.143 139.395C179.878 140.685 180.881 142.613 181.138 145.129C182.205 155.666 185.135 160.315 192.319 162.907C193.116 163.201 193.515 163.788 193.54 164.708C193.63 167.888 189.44 173.29 183.683 175.768C181.035 176.93 176.421 178.067 171.254 175.691Z" fill="#A92F4B"/>
<path d="M206.149 177.313C207.357 178.616 209.31 179.101 211.251 178.705C211.894 178.565 212.536 178.335 213.14 178.003C216.251 176.292 217.407 172.716 216.238 168.45C215.017 164.005 217.343 161.873 219.592 159.816C221.572 158.016 223.602 156.151 221.996 152.958C220.762 150.506 218.474 149.357 215.415 149.638C211.804 149.983 208.642 152.179 206.945 155.525C204.067 161.183 201.303 172.103 206.149 177.313ZM207.819 155.96C209.182 153.265 211.688 151.336 214.503 150.749C214.837 150.685 215.171 150.634 215.505 150.596C218.178 150.34 220.068 151.285 221.122 153.38C222.407 155.921 220.942 157.249 218.924 159.089C216.688 161.132 213.911 163.673 215.287 168.693C216.328 172.498 215.351 175.653 212.665 177.134C210.647 178.246 208.154 178.041 206.868 176.649C202.37 171.809 205.056 161.387 207.819 155.96Z" fill="#A92F4B"/>
<path d="M191.69 211.885C192.242 214.465 193.283 216.56 195.083 217.607C197.782 219.178 200.429 219.791 202.383 219.382C203.231 219.203 203.938 218.833 204.478 218.271C206.071 216.572 205.545 213.52 203.038 209.893C200.134 205.691 202.678 203.022 205.39 200.187C207.691 197.773 210.081 195.283 208.745 191.873C207.781 189.42 205.57 188.284 202.344 188.565C196.933 189.05 192.474 193.367 191.741 198.846C191.163 203.111 190.867 208.041 191.69 211.885ZM192.705 198.986C193.013 196.675 194.042 194.593 195.533 192.971C197.036 191.349 199.003 190.187 201.2 189.727C201.599 189.638 201.997 189.587 202.421 189.548C205.236 189.306 207.01 190.174 207.819 192.23C208.938 195.065 206.868 197.237 204.683 199.523C201.959 202.371 198.874 205.602 202.229 210.455C204.452 213.661 205.018 216.279 203.758 217.607C202.357 219.101 199.003 218.756 195.584 216.764C192.448 214.938 191.42 208.616 192.705 198.986Z" fill="#A92F4B"/>
<path d="M183.67 255.729C187.615 254.312 188.939 256.278 190.854 259.126C192.576 261.668 194.71 264.835 199.504 265.959C201.136 266.342 202.704 266.33 204.182 266.023C208.051 265.218 211.212 262.345 212.729 259.126C214.773 254.797 213.873 250.48 210.364 247.849C208.835 246.713 208.038 245.627 207.884 244.542C207.678 243.009 208.835 241.528 210.069 239.957C211.778 237.773 213.719 235.308 212.228 232.141C211.058 229.65 208.86 228.169 206.033 227.952C201.329 227.607 196.059 230.774 192.602 235.998C189.646 240.468 185.906 242.422 183.066 243.264C183.079 243.584 183.104 243.929 183.117 244.261C186.163 243.392 190.237 241.336 193.412 236.534C196.034 232.575 199.722 229.867 203.321 229.114C204.208 228.922 205.095 228.858 205.956 228.922C208.411 229.101 210.313 230.391 211.328 232.549C212.549 235.167 210.955 237.198 209.272 239.344C207.974 241.004 206.624 242.715 206.881 244.657C207.061 246.01 207.999 247.3 209.734 248.616C213.449 251.4 213.243 255.653 211.804 258.705C209.876 262.792 205.095 266.266 199.697 265.001C195.275 263.967 193.335 261.106 191.638 258.577C189.723 255.729 188.052 253.252 183.593 254.708C183.644 255.052 183.657 255.384 183.67 255.729Z" fill="#A92F4B"/>
<path d="M233.64 243.89C233.974 245.589 235.002 246.751 236.519 247.16C237.329 247.377 238.228 247.377 239.179 247.185C241.3 246.738 243.626 245.308 245.528 243.162C247.482 240.966 249.435 241.247 252.134 241.63C254.756 242 258.021 242.473 262.185 240.595C266.812 238.501 267.583 234.159 266.349 231.004C265.218 228.156 262.172 225.678 258.137 227.007C255.245 227.952 253.368 229.42 251.698 230.698C249.153 232.664 246.968 234.363 241.943 234.056C239.449 233.903 237.444 234.567 236.018 236.023C233.241 238.846 233.614 243.635 233.627 243.827C233.64 243.865 233.64 243.878 233.64 243.89ZM234.604 243.737C234.578 243.367 234.347 239.127 236.724 236.713C237.945 235.474 239.68 234.912 241.878 235.04C247.263 235.359 249.705 233.482 252.289 231.477C253.972 230.174 255.707 228.833 258.445 227.926C261.877 226.802 264.473 228.922 265.424 231.362C266.503 234.095 265.822 237.875 261.774 239.701C257.867 241.464 254.885 241.042 252.263 240.672C250.746 240.455 249.358 240.263 248.022 240.544C246.904 240.774 245.837 241.349 244.783 242.524C242.302 245.308 238.999 246.841 236.763 246.24C235.619 245.908 234.874 245.053 234.604 243.737Z" fill="#A92F4B"/>
<path d="M276.67 267.39C273.302 272.932 274.716 279.101 278.058 281.872C279.664 283.201 281.567 283.724 283.584 283.418C283.713 283.316 283.841 283.213 283.983 283.111C284.021 282.869 284.047 282.613 284.086 282.345C282.106 282.817 280.256 282.422 278.688 281.119C275.68 278.616 274.408 272.983 277.518 267.9C280.667 262.741 278.186 261.144 275.564 259.459C273.161 257.901 270.655 256.304 271.04 251.668C271.233 249.382 272.159 247.543 273.817 246.202C275.256 245.04 277.094 244.363 278.893 243.98C280.23 243.699 281.554 243.584 282.685 243.546C282.659 243.213 282.633 242.894 282.608 242.562C279.819 242.664 275.924 243.239 273.2 245.448C271.336 246.955 270.282 249.024 270.076 251.591C269.652 256.802 272.647 258.731 275.05 260.276C277.608 261.936 279.317 263.047 276.67 267.39Z" fill="#A92F4B"/>
<path d="M194.967 298.322C195.288 298.437 195.61 298.539 195.944 298.641C195.982 297.134 196.342 293.903 198.591 291.732C200.468 289.931 203.27 289.216 206.92 289.612C211.765 290.148 213.963 292.14 215.891 293.903C219.142 296.866 221.404 298.271 229.887 292.766C233.113 290.672 236.108 289.446 238.717 288.897C242.932 288.015 246.171 288.884 247.868 290.621C249.95 292.753 249.847 296.138 247.623 299.791C248.06 299.688 248.484 299.586 248.921 299.484C250.939 295.729 250.836 292.243 248.587 289.931C245.567 286.84 238.267 286.151 229.36 291.936C221.096 297.313 219.387 295.755 216.559 293.175C214.618 291.4 212.189 289.19 207.023 288.628C203.064 288.194 199.992 288.999 197.897 291.029C195.533 293.341 195.044 296.572 194.967 298.322Z" fill="#A92F4B"/>
<path d="M250.142 282.613C251.376 285.231 255.438 287.39 259.229 286.598C259.396 286.559 259.563 286.521 259.717 286.47C265.501 284.848 268.83 280.187 269.087 273.354C269.28 268.067 268.791 262.881 263.869 260.634C263.843 260.621 263.817 260.608 263.779 260.608C263.547 260.557 258.098 259.242 254.705 261.528C253.278 262.485 252.43 263.941 252.186 265.832C251.736 269.178 252.764 271.234 253.497 272.728C254.422 274.567 254.834 275.41 252.006 277.326C249.911 278.769 249.23 280.697 250.142 282.613ZM252.559 278.156C255.926 275.87 255.438 274.452 254.384 272.319C253.664 270.863 252.751 269.037 253.15 265.985C253.368 264.376 254.075 263.15 255.258 262.345C258.149 260.391 262.995 261.438 263.496 261.553C267.018 263.175 268.354 266.598 268.097 273.316C267.93 277.824 266.285 283.609 259.448 285.538C256.042 286.483 252.122 284.529 251.029 282.204C250.322 280.71 250.849 279.318 252.559 278.156Z" fill="#A92F4B"/>
<path d="M187.654 295.359C187.95 295.512 188.258 295.653 188.566 295.793C190.623 293.405 191.471 290.799 191.073 288.079C190.43 283.66 186.716 279.957 184.261 277.964C184.274 278.398 184.274 278.833 184.274 279.267C186.561 281.272 189.569 284.516 190.109 288.22C190.469 290.697 189.672 293.06 187.744 295.269C187.705 295.295 187.68 295.333 187.654 295.359Z" fill="#A92F4B"/>
<path d="M168.722 82.8435C168.722 82.8435 154.135 79.7783 153.788 74.2483C153.479 69.1398 159.546 69.6762 159.546 69.6762C159.546 69.6762 152.464 58.1309 156.525 55.8704C160.587 53.5971 165.715 60.0721 165.715 60.0721C165.715 60.0721 162.001 46.3812 166.962 47.3646C171.923 48.348 172.565 55.8704 172.565 55.8704C172.565 55.8704 189.055 50.0338 198.424 52.8308C204.812 54.7337 206.316 60.8384 206.316 60.8384C206.316 60.8384 210.107 58.5907 212.806 59.97C215.492 61.3493 213.037 66.0491 213.037 66.0491C213.037 66.0491 217.202 69.2292 215.929 74.2867C214.657 79.3441 211.02 89.3313 211.02 89.3313L168.722 82.8435Z" fill="#39393B"/>
<path d="M189.312 123.073L190.726 129.74C191.638 130.2 192.551 130.583 193.45 130.889C206.56 135.398 217.292 124.172 217.292 124.172L212.395 101.081L192.062 120.455L189.312 123.073Z" fill="#EA9B7A"/>
<path d="M189.312 123.073L190.726 129.74C191.638 130.2 192.551 130.583 193.45 130.889C202.537 124.912 207.562 113.073 207.562 113.073L192.075 120.455L189.312 123.073Z" fill="#39393B"/>
<path d="M176.408 69.1398C176.408 69.1398 160.535 74.044 169.956 89.6633C169.943 89.6506 177.706 73.4565 176.408 69.1398Z" fill="#39393B"/>
<path d="M174.673 95.3083C174.673 95.3083 169.918 91.6301 168.71 96.5598C167.501 101.477 171.074 110.174 176.562 107.492L174.673 95.3083Z" fill="#D46A43"/>
<path d="M173.94 111.834C173.94 111.834 176.845 125.615 191.253 122.562C205.57 119.536 212.96 106.317 213.359 105.691C213.372 105.679 213.372 105.679 213.372 105.679L212.909 102.754L210.531 87.5561L209.259 79.4335C209.259 79.4335 208.025 64.5932 193.643 64.8486C183.13 65.0402 174.018 68.6928 170.342 74.9252C168.992 77.224 168.375 79.8805 168.71 82.8434L171.319 97.3645L171.961 100.928L173.94 111.834Z" fill="#EA9B7A"/>
<path d="M203.334 89.3441C203.334 89.3441 201.213 97.7987 196.522 97.4156C191.831 97.0197 186.626 97.5561 183.001 100.251C183.001 100.251 175.74 99.1781 172.308 102.767C170.008 105.181 175.418 123.137 185.456 123.776C195.494 124.427 207.562 118.437 208.758 108.91C209.953 99.3824 208.154 91.8601 208.154 91.8601L203.334 89.3441Z" fill="#39393B"/>
<path d="M180.045 104.274C180.045 104.274 188.155 103.444 192.127 101.183C192.127 101.183 193.9 109.05 187.05 109.727C181.549 110.276 180.045 104.274 180.045 104.274Z" fill="white"/>
<path d="M190.507 95.1934C190.726 96.2023 192.975 96.5727 195.532 96.0363C198.09 95.4999 200.005 94.2483 199.787 93.2521C199.568 92.2432 197.319 91.8728 194.761 92.4092C192.204 92.9456 190.302 94.1845 190.507 95.1934Z" fill="#D46A43"/>
<path d="M171.974 100.915C172.334 100.877 172.719 100.813 173.105 100.736C175.663 100.2 177.578 98.9482 177.359 97.952C177.141 96.9558 174.892 96.5727 172.334 97.1091C171.987 97.1857 171.653 97.2624 171.331 97.3645L171.974 100.915Z" fill="#D46A43"/>
<path d="M189.492 89.6379C189.787 91.0172 190.649 92.0006 191.42 91.8346C192.191 91.6685 192.589 90.4297 192.294 89.0504C191.998 87.6711 191.137 86.6877 190.366 86.8537C189.595 87.0198 189.196 88.2586 189.492 89.6379Z" fill="#39393B"/>
<path d="M175.778 92.5114C176.074 93.8907 176.935 94.8741 177.706 94.7081C178.477 94.5421 178.876 93.3032 178.58 91.9239C178.285 90.5446 177.423 89.5612 176.652 89.7273C175.881 89.8933 175.483 91.1321 175.778 92.5114Z" fill="#39393B"/>
<path d="M184.299 97.9647C184.621 97.9008 184.814 97.5943 184.749 97.275C184.685 96.9685 184.377 96.7642 184.055 96.828C181.96 97.2623 180.752 96.381 180.315 95.9596C181.6 90.8255 182.86 85.6531 182.873 85.602C182.95 85.2955 182.757 84.9762 182.449 84.8996C182.14 84.823 181.819 85.0145 181.742 85.321C181.729 85.3721 180.418 90.7361 179.107 95.9724C179.069 96.1384 179.107 96.3172 179.21 96.4577C179.287 96.5726 180.919 98.6799 184.299 97.9647Z" fill="#39393B"/>
<path d="M195.083 81.8728C194.453 80.4808 192.653 78.0159 187.937 78.7822C187.358 78.8716 186.921 79.3569 186.896 79.9316C186.857 80.6596 187.435 81.2726 188.168 81.2598C189.453 81.2215 191.394 81.5153 192.859 83.316C193.309 83.878 194.17 83.9035 194.684 83.4054L194.8 83.2905C195.198 82.9201 195.301 82.3582 195.083 81.8728Z" fill="#39393B"/>
<path d="M171.113 86.892C171.126 85.3722 171.756 82.3837 176.395 81.1959C176.961 81.0554 177.552 81.3236 177.822 81.8345C178.156 82.4858 177.873 83.2777 177.192 83.5586C175.997 84.0439 174.339 85.0912 173.735 87.3134C173.542 88.003 172.784 88.3734 172.103 88.1308L171.948 88.0797C171.434 87.9009 171.113 87.4156 171.113 86.892Z" fill="#39393B"/>
<path d="M207.652 101.043C207.755 101.183 210.467 105.002 213.346 105.691C213.359 105.679 213.359 105.679 213.359 105.679L212.896 102.754C212.909 102.741 210.557 102.831 207.652 101.043Z" fill="#39393B"/>
<path d="M208.166 90.9532C208.166 90.9532 212.138 82.3964 217.433 87.3645C221.79 91.4513 218.114 105.257 210.583 102.371L208.166 90.9532Z" fill="#EA9B7A"/>
<path d="M210.878 99.9699C211.161 99.906 211.367 99.6378 211.341 99.3441C210.775 93.6225 215.081 90.6723 215.261 90.5574C215.531 90.3786 215.595 90.021 215.415 89.7528C215.235 89.4846 214.875 89.4208 214.605 89.5868C214.4 89.7273 209.529 93.0223 210.171 99.4462C210.197 99.7655 210.493 99.9954 210.814 99.9699C210.827 99.9827 210.853 99.9827 210.878 99.9699Z" fill="#39393B"/>
<path d="M215.467 95.4233C215.634 95.385 215.775 95.2828 215.865 95.1168C216.006 94.8358 215.904 94.4782 215.608 94.3377C215.338 94.1972 212.96 93.0223 211.341 93.8269C211.058 93.9674 210.93 94.3122 211.071 94.6059C211.212 94.8869 211.559 95.0146 211.855 94.8741C212.78 94.4144 214.541 95.104 215.081 95.385C215.197 95.4361 215.338 95.4488 215.467 95.4233Z" fill="#39393B"/>
<path d="M170.355 74.9252C170.56 75.385 170.856 75.7553 171.241 76.0235C174.66 78.3607 181.061 75.9341 186.793 72.7668C192.525 69.5995 197.769 73.1244 197.769 73.1244C197.306 79.3186 203.18 78.5778 202.884 83.2649C202.588 87.952 204.298 93.6863 204.298 93.6863L207.794 92.4603C208.128 90.2253 209.529 88.5139 210.518 87.5561L209.246 79.4335C209.246 79.4335 208.012 64.5932 193.63 64.8486C183.143 65.0402 174.018 68.68 170.355 74.9252Z" fill="#39393B"/>
<path d="M277.724 270.263C277.724 270.263 291.45 324.069 220.286 324.069C182.282 324.069 164.211 320.429 164.211 320.429C164.211 320.429 163.299 353.775 161.525 367.849C159.751 381.923 153.492 416.968 153.492 416.968L123.559 419.266C123.559 419.266 118.778 297.172 137.118 285.933C155.459 274.695 181.845 274.363 227.137 270.033C227.15 270.033 267.815 263.2 277.724 270.263Z" fill="#39393B"/>
<path d="M149.405 407.21C149.341 407.21 149.277 407.198 149.212 407.185C148.775 407.083 148.506 406.648 148.608 406.214C152.747 389.037 154.392 364.439 155.703 344.669C157.001 325.18 157.785 314.925 159.816 313.137C162.065 311.17 168.722 311.872 179.763 313.034C193.45 314.478 214.117 316.661 236.416 314.12C247.495 312.856 255.977 308.552 261.645 301.31C271.812 288.322 269.485 270.097 269.46 269.918C269.395 269.471 269.717 269.063 270.154 269.012C270.603 268.948 271.015 269.267 271.066 269.701C271.169 270.467 273.521 288.769 262.931 302.294C256.98 309.893 248.125 314.414 236.596 315.729C214.117 318.296 193.335 316.1 179.583 314.644C170.085 313.635 162.592 312.843 160.882 314.35C160.497 314.695 159.726 316.368 158.942 323.762C158.351 329.228 157.875 336.432 157.322 344.784C155.999 364.618 154.353 389.292 150.176 406.597C150.099 406.968 149.765 407.21 149.405 407.21Z" fill="#585859"/>
<path d="M123.893 409.637C123.469 409.637 123.109 409.305 123.083 408.871C123.058 408.424 123.405 408.041 123.842 408.015L154.456 406.176C154.906 406.15 155.292 406.495 155.317 406.929C155.343 407.376 154.996 407.76 154.559 407.785L123.945 409.624C123.919 409.637 123.906 409.637 123.893 409.637Z" fill="#585859"/>
<path d="M206.239 285.665H116.567C116.362 285.665 116.195 285.499 116.195 285.295V274.324C116.195 274.12 116.362 273.954 116.567 273.954H206.239C206.444 273.954 206.611 274.12 206.611 274.324V285.295C206.611 285.499 206.444 285.665 206.239 285.665Z" fill="#CED3E6"/>
<path d="M106.761 285.665C103.355 285.665 100.386 283.392 99.4992 280.123L82.5855 217.198C81.5573 213.354 84.4748 209.574 88.4719 209.574H128.957C131.682 209.574 134.085 211.374 134.831 213.992L155.086 285.653H106.761V285.665Z" fill="white"/>
<path d="M134.843 214.005L154.932 285.078H159.559L139.47 214.005C138.725 211.387 136.334 209.586 133.597 209.586H128.97C131.695 209.574 134.098 211.387 134.843 214.005Z" fill="#CED3E6"/>
<path d="M123.405 248.641C124.33 252.588 121.85 255.793 117.865 255.793C113.894 255.793 109.923 252.588 108.997 248.641C108.072 244.695 110.552 241.489 114.537 241.489C118.508 241.489 122.479 244.695 123.405 248.641Z" fill="#CED3E6"/>
<path d="M178.619 260.021C178.619 260.021 160.265 261.272 154.405 266.853L157.978 279.471C157.978 279.471 168.954 275.014 171.987 275.448C175.033 275.883 176.845 280.838 187.011 277.824L178.619 260.021Z" fill="#EA9B7A"/>
<path d="M178.709 259.19L180.778 258.347L182.924 257.453C184.364 256.853 185.79 256.227 187.23 255.589C190.096 254.324 192.936 253.022 195.764 251.668C201.406 248.973 206.945 246.112 212.279 243.086C217.613 240.046 222.78 236.828 227.484 233.379C228.653 232.511 229.81 231.642 230.915 230.761C232.021 229.867 233.087 228.973 234.115 228.067C236.133 226.253 237.984 224.388 239.436 222.575C240.156 221.681 240.799 220.774 241.274 219.982C241.698 219.254 242.11 218.45 242.47 217.543C243.189 215.742 243.755 213.609 244.14 211.272C244.899 206.572 244.924 201.144 244.436 195.589C243.948 190.021 242.958 184.274 241.66 178.565C241.004 175.704 240.259 172.843 239.449 170.021C239.038 168.603 238.614 167.198 238.177 165.819C237.958 165.129 237.727 164.44 237.508 163.763L237.174 162.779L237.007 162.307L236.93 162.09L236.892 161.987L236.879 161.949C233.01 153.929 236.416 144.299 244.487 140.455C252.559 136.611 262.249 139.995 266.118 148.016C266.491 148.795 266.799 149.587 267.043 150.378L267.532 152.051L267.66 152.498L267.763 152.856L267.956 153.546L268.303 154.874C268.521 155.755 268.74 156.611 268.945 157.479C269.357 159.203 269.742 160.915 270.089 162.626C270.809 166.062 271.426 169.497 271.953 172.971C272.994 179.918 273.701 186.981 273.791 194.286C273.842 197.939 273.714 201.655 273.38 205.436C273.033 209.229 272.441 213.098 271.477 217.058C270.501 221.017 269.125 225.065 267.095 229.101C266.067 231.119 264.871 233.111 263.47 235.04C262.108 236.904 260.72 238.513 259.293 240.033C256.44 243.047 253.497 245.55 250.528 247.837C247.559 250.097 244.552 252.128 241.531 254.018C235.491 257.773 229.386 260.965 223.229 263.89C217.073 266.802 210.865 269.433 204.619 271.872C201.496 273.086 198.36 274.26 195.198 275.384C193.618 275.946 192.037 276.495 190.443 277.032L188.04 277.836L185.533 278.641C180.097 280.378 174.262 277.415 172.501 272.013C170.83 266.866 173.452 261.374 178.413 259.344L178.709 259.19Z" fill="#EA9B7A"/>
<path d="M253.805 224.567C253.741 224.567 253.677 224.554 253.625 224.542C247.366 222.677 240.374 222.958 240.31 222.971C239.95 222.983 239.655 222.715 239.642 222.358C239.629 222 239.899 221.706 240.259 221.694C240.554 221.681 247.533 221.387 254.011 223.316C254.345 223.418 254.538 223.775 254.448 224.107C254.332 224.388 254.075 224.567 253.805 224.567Z" fill="#D46A43"/>
<path d="M241.878 222.945C241.698 222.945 241.518 222.869 241.39 222.728C241.159 222.46 241.184 222.064 241.454 221.821C243.793 219.816 246.724 218.935 246.852 218.897C247.186 218.795 247.546 218.986 247.649 219.331C247.752 219.663 247.559 220.021 247.212 220.123C247.186 220.136 244.41 220.966 242.29 222.779C242.187 222.894 242.033 222.945 241.878 222.945Z" fill="#D46A43"/>
<path d="M276.683 183.89L263.38 187.518L262.404 187.786L253.214 190.289L252.096 190.595L240.272 193.814L239.359 189.65L239.154 188.654L237.02 178.871L236.802 177.888L232.779 159.433C231.686 155.168 230.967 149.829 231.571 145.474C232.457 139.025 238.151 130.659 248.652 130.097C250.528 129.995 252.289 130.276 253.934 130.877C254.268 130.979 254.602 131.119 254.923 131.26C258.098 132.69 260.848 135.321 263.213 138.705C263.406 138.974 263.586 139.242 263.753 139.523C268.251 146.317 271.323 155.819 273.38 164.708C273.47 165.053 273.547 165.398 273.624 165.742C274.575 169.97 275.295 174.044 275.834 177.569C275.924 178.118 276.001 178.654 276.066 179.178C276.323 180.94 276.528 182.524 276.683 183.89Z" fill="#DF615C"/>
<path d="M275.834 177.569C274.254 176.138 272.12 175.142 268.83 175.73C264.923 176.419 261.851 175.168 260.617 172.371C259.679 170.276 260.116 167.824 261.62 166.675C264.627 164.376 269.241 164.567 273.624 165.742C273.547 165.397 273.47 165.053 273.38 164.708C268.881 163.571 264.177 163.495 261.016 165.896C259.602 166.981 258.946 168.871 259.178 170.825C259.255 171.477 259.435 172.128 259.705 172.767C261.144 175.998 264.627 177.466 269.01 176.687C272.544 176.049 274.498 177.415 276.066 179.178C276.001 178.667 275.924 178.131 275.834 177.569Z" fill="#A92F4B"/>
<path d="M261.941 148.68C259.216 144.759 261.26 142.166 263.753 139.535C263.586 139.255 263.406 138.986 263.213 138.718C260.579 141.464 257.918 144.618 261.131 149.242C263.355 152.447 263.907 155.053 262.661 156.394C261.26 157.888 257.892 157.543 254.487 155.551C251.351 153.712 250.335 147.403 251.608 137.773C251.916 135.461 252.944 133.38 254.435 131.758C254.589 131.592 254.756 131.426 254.924 131.272C254.602 131.132 254.268 130.991 253.934 130.889C252.173 132.69 250.991 135.027 250.631 137.633C250.078 141.885 249.783 146.828 250.592 150.659C251.145 153.239 252.186 155.334 253.985 156.394C256.684 157.965 259.345 158.578 261.285 158.169C262.134 157.99 262.853 157.62 263.38 157.058C264.974 155.359 264.447 152.307 261.941 148.68Z" fill="#A92F4B"/>
<path d="M237.046 178.016C234.861 165.104 232.098 153.022 232.072 152.894C232.008 152.639 231.751 152.473 231.494 152.537C231.236 152.601 231.069 152.856 231.134 153.111C231.159 153.239 233.91 165.257 236.082 178.105C236.223 178.603 237.046 178.629 237.046 178.016Z" fill="#A92F4B"/>
<path d="M233.524 162.435C233.434 162.435 233.344 162.409 233.267 162.358L228.255 159.165C228.036 159.025 227.959 158.731 228.113 158.501C228.255 158.271 228.55 158.207 228.782 158.361L233.794 161.553C234.013 161.694 234.09 161.988 233.935 162.217C233.845 162.358 233.678 162.435 233.524 162.435Z" fill="#A92F4B"/>
<path d="M201.033 163.814C199.337 163.814 197.782 163.201 196.394 161.987C188.464 155.053 188.502 129.842 188.502 128.769C188.502 128.271 188.914 127.862 189.428 127.862C189.942 127.862 190.353 128.271 190.34 128.782C190.34 129.037 190.302 154.222 197.602 160.608C198.849 161.694 200.211 162.128 201.74 161.924C211.495 160.646 215.929 132.435 216.816 121.668C216.855 121.17 217.305 120.787 217.806 120.825C218.307 120.864 218.693 121.311 218.654 121.809C218.641 121.911 217.806 131.847 215.428 141.873C212.151 155.64 207.627 162.996 201.985 163.737C201.676 163.801 201.355 163.814 201.033 163.814Z" fill="white"/>
<path d="M274.716 399.292H178.606C176.357 399.292 174.532 397.479 174.532 395.244C174.532 393.009 176.357 391.195 178.606 391.195H274.716C276.965 391.195 278.79 393.009 278.79 395.244C278.79 397.479 276.965 399.292 274.716 399.292Z" fill="#084FC7"/>
<path d="M169.763 461.067C169.584 461.067 169.404 461.054 169.224 461.029C167 460.735 165.432 458.692 165.728 456.482L183.233 326.598C183.503 324.592 185.225 323.085 187.268 323.085H265.681C267.725 323.085 269.447 324.592 269.717 326.598L286.952 456.495C287.247 458.704 285.679 460.748 283.443 461.029C281.22 461.323 279.163 459.764 278.88 457.542L262.108 331.17H190.829L173.799 457.555C173.516 459.598 171.768 461.067 169.763 461.067Z" fill="#0875F7"/>
<path d="M209.979 327.134H260.9C277.03 327.134 294.316 318.36 296.784 302.524C300.1 281.336 300.909 260.825 299.997 242C298.956 220.71 290.627 200.94 273.778 187.747C273.778 187.747 281.052 269.867 274.485 292.549C265.732 322.856 209.979 327.134 209.979 327.134Z" fill="#0875F7"/>
<path d="M54.1302 158.028V182.32C54.1302 185.525 56.7521 188.131 59.9781 188.131H104.37L117.775 192.907C119.151 193.392 120.474 192.051 119.935 190.698L114.871 177.684V158.016C114.871 154.81 112.249 152.205 109.01 152.205H59.9781C56.7521 152.205 54.1302 154.81 54.1302 158.028Z" fill="#0875F7"/>
<path d="M92.6874 170.864C92.6874 173.188 94.5767 175.065 96.9158 175.065C99.255 175.065 101.144 173.175 101.144 170.864C101.144 168.539 99.255 166.662 96.9158 166.662C94.5895 166.649 92.6874 168.539 92.6874 170.864Z" fill="#084FC7"/>
<path d="M79.2952 170.864C79.2952 173.188 81.1845 175.065 83.5236 175.065C85.8628 175.065 87.7521 173.175 87.7521 170.864C87.7521 168.539 85.8628 166.662 83.5236 166.662C81.1845 166.649 79.2952 168.539 79.2952 170.864Z" fill="#084FC7"/>
<path d="M65.8901 170.864C65.8901 173.188 67.7923 175.065 70.1186 175.065C72.4577 175.065 74.347 173.175 74.347 170.864C74.347 168.539 72.4449 166.662 70.1186 166.662C67.7794 166.649 65.8901 168.539 65.8901 170.864Z" fill="#084FC7"/>
<path d="M347.386 80.2218C366.502 80.2218 381.998 65.0121 381.998 46.25C381.998 27.4879 366.502 12.2782 347.386 12.2782C328.271 12.2782 312.775 27.4879 312.775 46.25C312.775 65.0121 328.271 80.2218 347.386 80.2218Z" fill="#CED3E6"/>
<path d="M347.386 75.8029C366.502 75.8029 381.998 60.5932 381.998 41.8311C381.998 23.069 366.502 7.85931 347.386 7.85931C328.271 7.85931 312.775 23.069 312.775 41.8311C312.775 60.5932 328.271 75.8029 347.386 75.8029Z" fill="#21B573"/>
<path d="M347.386 69.4428C362.931 69.4428 375.533 57.0806 375.533 41.8311C375.533 26.5816 362.931 14.2194 347.386 14.2194C331.841 14.2194 319.239 26.5816 319.239 41.8311C319.239 57.0806 331.841 69.4428 347.386 69.4428Z" fill="white"/>
<path d="M375.533 41.8311C375.533 42.5718 375.507 43.2998 375.443 44.015C374.299 29.8005 362.154 18.5745 347.386 18.5745C332.619 18.5745 320.473 29.8005 319.329 44.015C319.278 43.2998 319.239 42.5718 319.239 41.8311C319.239 26.6076 331.86 14.2194 347.386 14.2194C362.899 14.2194 375.533 26.6076 375.533 41.8311Z" fill="#CED3E6"/>
<path d="M347.386 44.7046C347.168 44.7046 346.962 44.6025 346.821 44.4237L333.017 26.1862C332.786 25.8797 332.85 25.4454 333.158 25.2156C333.467 24.9857 333.917 25.0495 334.148 25.356L347.617 43.1593L362.925 36.5693C363.285 36.416 363.696 36.5693 363.85 36.9269C364.004 37.2717 363.85 37.6804 363.49 37.8336L347.669 44.6535C347.579 44.6919 347.476 44.7046 347.386 44.7046Z" fill="#39393B"/>
<path d="M96.826 103.597H87.4566C86.6083 103.597 85.9271 102.92 85.9271 102.077V52.4477C85.9271 51.6047 86.6083 50.9279 87.4566 50.9279H96.826C97.6742 50.9279 98.3554 51.6047 98.3554 52.4477V102.077C98.3554 102.92 97.6742 103.597 96.826 103.597Z" fill="#0875F7"/>
<path d="M94.9752 79.0631H89.3201C88.4976 79.0631 87.8164 78.399 87.8164 77.5689V76.9431C87.8164 76.1257 88.4847 75.4489 89.3201 75.4489H94.9752C95.7978 75.4489 96.4789 76.113 96.4789 76.9431V77.5689C96.4661 78.399 95.7978 79.0631 94.9752 79.0631Z" fill="#084FC7"/>
<path d="M98.3554 55.1808H85.9271V57.2114H98.3554V55.1808Z" fill="#084FC7"/>
<path d="M98.3554 59.4336H85.9271V61.4642H98.3554V59.4336Z" fill="#084FC7"/>
<path d="M98.3554 90.8256H85.9271V92.8562H98.3554V90.8256Z" fill="#084FC7"/>
<path d="M98.3554 95.0784H85.9271V97.109H98.3554V95.0784Z" fill="#084FC7"/>
<path d="M73.1261 103.597H61.469C61.2633 103.597 61.0834 103.431 61.0834 103.214V51.311C61.0834 51.1067 61.2505 50.9279 61.469 50.9279H73.1261C73.3317 50.9279 73.5117 51.0939 73.5117 51.311V103.214C73.5117 103.431 73.3317 103.597 73.1261 103.597Z" fill="#21B573"/>
<path d="M70.1186 79.0631H64.4636C63.641 79.0631 62.9598 78.399 62.9598 77.5689V76.9431C62.9598 76.1257 63.6282 75.4489 64.4636 75.4489H70.1186C70.9412 75.4489 71.6224 76.113 71.6224 76.9431V77.5689C71.6224 78.399 70.9412 79.0631 70.1186 79.0631Z" fill="#217C58"/>
<path d="M73.5117 55.1808H61.0834V57.2114H73.5117V55.1808Z" fill="#217C58"/>
<path d="M73.5117 59.4336H61.0834V61.4642H73.5117V59.4336Z" fill="#217C58"/>
<path d="M73.5117 90.8256H61.0834V92.8562H73.5117V90.8256Z" fill="#217C58"/>
<path d="M73.5117 95.0784H61.0834V97.109H73.5117V95.0784Z" fill="#217C58"/>
<path d="M84.3976 103.597H75.0282C74.18 103.597 73.4988 102.92 73.4988 102.077V52.4477C73.4988 51.6047 74.18 50.9279 75.0282 50.9279H84.3976C85.2459 50.9279 85.9271 51.6047 85.9271 52.4477V102.077C85.9271 102.92 85.2459 103.597 84.3976 103.597Z" fill="#DF615C"/>
<path d="M82.5469 79.0631H76.8918C76.0692 79.0631 75.3881 78.399 75.3881 77.5689V76.9431C75.3881 76.1257 76.0564 75.4489 76.8918 75.4489H82.5469C83.3694 75.4489 84.0506 76.113 84.0506 76.9431V77.5689C84.0506 78.399 83.3694 79.0631 82.5469 79.0631Z" fill="#A92F4B"/>
<path d="M85.9399 55.1808H73.5116V57.2114H85.9399V55.1808Z" fill="#A92F4B"/>
<path d="M85.9399 59.4336H73.5116V61.4642H85.9399V59.4336Z" fill="#A92F4B"/>
<path d="M85.9399 90.8256H73.5116V92.8562H85.9399V90.8256Z" fill="#A92F4B"/>
<path d="M85.9399 95.0784H73.5116V97.109H85.9399V95.0784Z" fill="#A92F4B"/>
<path d="M118.547 101.745L107.031 103.584C106.825 103.622 106.62 103.482 106.594 103.265L98.2783 52.0262C98.2397 51.8218 98.3811 51.6175 98.5996 51.5919L110.115 49.7529C110.321 49.7146 110.527 49.855 110.552 50.0722L118.868 101.311C118.894 101.515 118.752 101.707 118.547 101.745Z" fill="#FAAF3A"/>
<path d="M112.801 77.8115L104.923 79.0759C104.743 79.1014 104.576 78.9865 104.537 78.8077L104.062 75.8958C104.036 75.717 104.152 75.551 104.332 75.5127L112.21 74.2483C112.39 74.2228 112.557 74.3377 112.596 74.5165L113.071 77.4284C113.097 77.6072 112.981 77.786 112.801 77.8115Z" fill="#C77E2E"/>
<path d="M111.184 53.8808L98.9138 55.8469L99.2392 57.8518L111.51 55.8857L111.184 53.8808Z" fill="#C77E2E"/>
<path d="M111.866 58.0827L99.5957 60.0488L99.921 62.0537L112.191 60.0876L111.866 58.0827Z" fill="#C77E2E"/>
<path d="M116.89 89.0693L104.62 91.0354L104.945 93.0403L117.216 91.0741L116.89 89.0693Z" fill="#C77E2E"/>
<path d="M117.576 93.2679L105.306 95.234L105.631 97.2389L117.902 95.2728L117.576 93.2679Z" fill="#C77E2E"/>
<g opacity="0.8">
<g opacity="0.8">
<g opacity="0.8">
<path opacity="0.8" d="M150.498 117.709H37.9491L35.4814 111.209H153.312L150.498 117.709Z" fill="#CED3E6"/>
</g>
</g>
</g>
<path d="M153.312 103.482H35.4814V111.209H153.312V103.482Z" fill="#39393B"/>
<path d="M47.4856 111.209L50.6344 117.773H58.0631L60.1838 111.209H47.4856Z" fill="#39393B"/>
<path d="M141.308 111.209L138.159 117.773H130.731L128.623 111.209H141.308Z" fill="#39393B"/>
<path d="M502.284 486.277C596.016 486.277 672 481.834 672 476.354C672 470.873 596.016 466.43 502.284 466.43C408.552 466.43 332.568 470.873 332.568 476.354C332.568 481.834 408.552 486.277 502.284 486.277Z" fill="#D1CDCA"/>
<path d="M536.774 481.002C483.758 479.151 428.916 471.96 400.525 374.872C392.081 346.009 397.569 324.157 406.836 307.682C409.124 303.608 411.643 299.879 414.239 296.444C415.216 295.154 416.205 293.902 417.195 292.689C437.913 267.44 472.653 258.385 503.46 269.547C520.734 275.805 542.892 285.052 562.646 297.082C602.334 321.258 611.652 348.819 624.62 396.086C625.738 400.147 626.844 404.694 627.692 409.534C628.142 412.114 628.514 414.783 628.771 417.49C631.65 447.72 619.916 483.901 536.774 481.002Z" fill="#39393B"/>
<path d="M628.771 417.49C627.011 422.407 624.504 427.414 621.163 432.165C611.138 446.443 590.253 463.684 547.737 464.808C545.86 464.859 544.023 464.885 542.198 464.885C525.952 464.885 511.622 462.931 498.525 458.959C484.824 454.808 472.872 448.525 461.973 439.789C443.761 425.179 428.736 403.812 413.301 370.517C407.196 357.363 404.034 344.03 403.906 330.888C403.828 323.059 404.805 315.281 406.849 307.695C409.137 303.621 411.656 299.892 414.252 296.456C413.596 297.963 412.954 299.547 412.35 301.194C406.797 316.329 402.967 340.415 416.295 369.151C443.401 427.605 474.825 463.442 547.66 461.552C588.813 460.479 608.889 443.965 618.477 430.313C623.489 423.186 626.317 415.971 627.705 409.547C628.142 412.114 628.514 414.783 628.771 417.49Z" fill="#585859"/>
<path d="M552.929 238.321C552.929 238.321 586.217 283.2 593.813 305.562C601.409 327.912 582.978 343.8 582.978 343.8L565.859 350.185C565.859 350.173 548.264 271.246 552.929 238.321Z" fill="#084FC7"/>
<path d="M549.986 364.042C535.437 368.832 499.887 381.399 484.452 376.316C483.796 376.099 483.192 375.856 482.614 375.575C480.93 374.758 479.581 373.659 478.63 372.229C472.576 363.072 466.574 324.643 469.273 302.063C469.607 299.241 469.774 296.175 469.826 292.957C469.903 288.219 469.749 283.149 469.543 278.053C468.785 258.87 465.739 245.626 474.003 240.965C481.419 236.776 490.801 233.506 496.777 232.089C500.479 231.208 506.545 229.368 510.799 229.445L529.204 232.766C529.204 232.766 545.089 235.397 548.752 238.091C552.415 240.773 554.292 252.612 560.911 263.455C567.53 274.298 568.969 285.179 562.646 297.082C557.145 307.44 558.109 303.506 557.389 320.492C556.502 341.309 578.403 354.681 549.986 364.042Z" fill="white"/>
<g opacity="0.8">
<g opacity="0.8">
<path opacity="0.8" d="M501.121 266.508C501.121 266.508 521.068 261.386 546.529 266.112L547.146 283.596C547.146 283.596 519.153 280.505 501.52 284.962L501.121 266.508Z" fill="#CED3E6"/>
</g>
</g>
<g opacity="0.8">
<path opacity="0.8" d="M524.037 251.744C523.767 251.744 523.497 251.731 523.215 251.718C512.316 251.156 502.317 241.603 501.905 241.195C501.61 240.914 501.61 240.441 501.892 240.147C502.175 239.854 502.651 239.854 502.946 240.135C503.049 240.224 512.958 249.713 523.292 250.237C533.188 250.76 534.383 241.003 534.435 240.582C534.486 240.173 534.846 239.879 535.257 239.93C535.669 239.969 535.964 240.339 535.913 240.748C535.913 240.85 534.602 251.744 524.037 251.744Z" fill="#CED3E6"/>
</g>
<g opacity="0.8">
<path opacity="0.8" d="M493.14 339.266C493.063 339.202 492.999 339.138 492.934 339.049C492.716 338.678 492.831 338.206 493.191 337.989C507.367 329.458 520.965 326.456 529.872 325.435C539.55 324.323 545.783 325.217 546.04 325.256C546.465 325.32 546.76 325.716 546.696 326.137C546.632 326.558 546.233 326.852 545.809 326.788C545.745 326.776 539.473 325.882 529.988 326.98C521.248 327.989 507.894 330.952 493.988 339.317C493.731 339.483 493.397 339.458 493.14 339.266Z" fill="#CED3E6"/>
</g>
<path d="M511.673 371.003C498.576 366.878 486.727 358.576 478.642 351.182C478 350.594 477.383 350.019 476.792 349.445C472.602 345.396 469.646 347.478 468.361 345.154C463.464 336.252 466.24 301.322 468.361 288.487C470.481 275.665 461.574 252.165 466.368 243.762C471.162 235.358 487.678 232.421 487.678 232.421C487.678 232.421 485.339 229.713 489.773 226.61C494.207 223.506 506.005 224.796 506.005 224.796C506.571 280.301 514.475 331.871 511.673 371.003Z" fill="#0875F7"/>
<path d="M498.795 355.09C498.435 355.09 498.127 354.834 498.075 354.477C492.112 315.971 498.011 243.532 498.075 242.804C498.114 242.408 498.461 242.114 498.859 242.14C499.258 242.178 499.566 242.523 499.528 242.919C499.463 243.647 493.59 315.907 499.528 354.247C499.592 354.643 499.309 355.013 498.911 355.077C498.872 355.077 498.834 355.09 498.795 355.09Z" fill="white"/>
<path d="M510.786 360.862C510.439 360.862 510.131 360.62 510.066 360.262C502.265 316.035 501.648 239.713 501.648 238.947C501.648 238.551 501.969 238.219 502.368 238.219C502.766 238.219 503.1 238.538 503.1 238.934C503.1 239.7 503.73 315.894 511.506 360.007C511.57 360.403 511.313 360.773 510.915 360.85C510.863 360.862 510.825 360.862 510.786 360.862Z" fill="#084FC7"/>
<path d="M497.844 238.5C497.78 238.5 497.715 238.487 497.651 238.474C491.482 236.84 487.703 233.225 487.536 233.072C487.254 232.791 487.241 232.331 487.523 232.05C487.806 231.769 488.269 231.757 488.552 232.038C488.59 232.076 492.227 235.55 498.011 237.082C498.397 237.184 498.628 237.58 498.525 237.976C498.461 238.296 498.165 238.5 497.844 238.5Z" fill="#084FC7"/>
<path d="M568.417 346.763C568.417 346.763 563.751 362.382 546.375 369.828C544.215 327.478 539.332 279.113 533.021 227.67C533.021 227.67 539.666 226.508 542.429 230.288C543.624 231.91 543.881 234.669 543.881 234.669C543.881 234.669 547.274 235.32 550.989 237.044C554.703 238.768 554.279 241.131 555.166 247.133C556.052 253.136 565.383 262.421 568.417 275C571.45 287.58 563.404 295.601 560.898 306.163C558.379 316.699 568.417 346.763 568.417 346.763Z" fill="#0875F7"/>
<path d="M553.495 353.314C553.096 353.314 552.775 353.008 552.762 352.612C551.079 295 540.488 243.519 540.385 243.008C540.308 242.612 540.552 242.229 540.951 242.153C541.349 242.076 541.735 242.319 541.812 242.714C541.915 243.225 552.531 294.822 554.215 352.574C554.227 352.97 553.906 353.314 553.508 353.314C553.508 353.314 553.508 353.314 553.495 353.314Z" fill="white"/>
<path d="M537.506 240.096C537.159 240.096 536.851 239.841 536.787 239.496C536.722 239.1 536.992 238.73 537.378 238.653C537.429 238.64 542.107 237.798 543.174 234.439C543.29 234.056 543.701 233.838 544.087 233.966C544.472 234.081 544.678 234.49 544.562 234.873C543.213 239.087 537.84 240.045 537.622 240.084C537.583 240.096 537.545 240.096 537.506 240.096Z" fill="#084FC7"/>
<path d="M551.798 353.314C551.438 353.314 551.117 353.046 551.079 352.676C545.938 310.198 537.815 242.319 537.738 241.642C537.686 241.246 537.982 240.888 538.38 240.837C538.779 240.786 539.139 241.08 539.19 241.476C539.267 242.153 547.39 310.045 552.531 352.51C552.582 352.906 552.3 353.263 551.888 353.314C551.85 353.314 551.824 353.314 551.798 353.314Z" fill="#084FC7"/>
<path d="M508.627 383.812C510.85 385.396 514.346 387.044 519.603 388.704C549.421 398.129 576.758 382.918 576.758 382.918C578.416 374.809 577.387 365.588 574.637 362.203C575.498 361.003 574.933 359.572 574.933 359.572L602.372 331.271C586.77 344.119 567.465 348.321 552.441 357.35C552.441 357.35 552.441 357.35 552.428 357.35C548.097 359.955 544.202 362.242 541.349 363.838C536.992 366.265 531.44 366.507 525.991 365.754C515.375 364.298 505.195 359.1 505.195 359.1C505.195 359.1 471.021 343.71 464.62 344.221C459.646 344.604 486.457 372.42 508.627 383.812Z" fill="#21B573"/>
<path d="M561.438 407.529C561.438 407.529 552.647 405.013 549.935 402.177L543.817 416.481L564.625 422.931C564.638 422.931 564.921 410.377 561.438 407.529Z" fill="#EA9B7A"/>
<path d="M611.652 448.857L584.752 389.534C583.749 389.457 582.49 389.726 581.076 390.236C575.858 392.127 568.519 397.337 563.802 400.39C563.25 400.747 562.736 401.079 562.26 401.373C561.463 401.858 560.782 402.241 560.268 402.484C556.117 404.336 558.302 406.558 558.302 406.558C566.039 410.402 561.322 421.794 566.039 424.451C566.039 424.451 568.044 425.613 574.444 428.41C580.845 431.207 587.284 437.963 593.247 443.493C600.946 450.645 605.778 451.475 608.542 450.824C610.752 450.313 611.652 448.857 611.652 448.857Z" fill="#EBB12B"/>
<path d="M611.652 448.857L584.752 389.534C583.749 389.457 582.49 389.726 581.076 390.236L608.542 450.824C610.752 450.313 611.652 448.857 611.652 448.857Z" fill="#C77E2E"/>
<path d="M587.502 395.588L586.705 393.825C585.484 396.494 583.12 399.521 578.596 401.296C572.568 403.646 566.99 401.909 563.815 400.402C563.263 400.76 562.748 401.092 562.273 401.386C565.499 403.11 571.938 405.562 579.161 402.752C583.479 401.041 586.011 398.244 587.502 395.588Z" fill="#C77E2E"/>
<path d="M577.516 425.83C577.323 425.396 576.835 425.128 576.334 425.217C575.742 425.319 575.357 425.881 575.46 426.469L576.218 430.594C576.321 431.181 576.886 431.564 577.477 431.462C578.069 431.36 578.454 430.798 578.351 430.211L577.593 426.086C577.58 425.996 577.555 425.907 577.516 425.83Z" fill="white"/>
<path d="M572.748 423.531C572.555 423.097 572.067 422.829 571.565 422.918C570.974 423.02 570.589 423.582 570.691 424.17L571.45 428.295C571.553 428.882 572.118 429.266 572.709 429.163C573.3 429.061 573.686 428.499 573.583 427.912L572.825 423.787C572.812 423.697 572.786 423.608 572.748 423.531Z" fill="white"/>
<path d="M581.372 428.563C581.179 428.129 580.691 427.861 580.189 427.95C579.598 428.052 579.213 428.614 579.315 429.202L580.074 433.327C580.176 433.914 580.742 434.297 581.333 434.195C581.924 434.093 582.31 433.531 582.207 432.944L581.449 428.819C581.423 428.729 581.397 428.64 581.372 428.563Z" fill="white"/>
<path d="M585.137 431.335C584.945 430.9 584.456 430.632 583.955 430.722C583.364 430.824 582.978 431.386 583.081 431.973L583.839 436.098C583.942 436.686 584.508 437.069 585.099 436.967C585.69 436.865 586.076 436.303 585.973 435.715L585.215 431.59C585.189 431.501 585.163 431.411 585.137 431.335Z" fill="white"/>
<path d="M588.89 434.515C588.698 434.08 588.209 433.812 587.708 433.902C587.117 434.004 586.731 434.566 586.834 435.153L587.592 439.278C587.695 439.866 588.261 440.249 588.852 440.147C589.443 440.045 589.829 439.483 589.726 438.895L588.967 434.77C588.955 434.681 588.929 434.591 588.89 434.515Z" fill="white"/>
<path d="M592.515 438.167C592.322 437.733 591.834 437.465 591.332 437.554C590.741 437.656 590.356 438.218 590.458 438.806L591.217 442.931C591.32 443.518 591.885 443.902 592.476 443.799C593.067 443.697 593.453 443.135 593.35 442.548L592.592 438.423C592.579 438.32 592.553 438.244 592.515 438.167Z" fill="white"/>
<path d="M464.62 344.209C464.62 344.209 442.99 332.612 430.471 341.578C407.568 357.976 446.434 389.508 490.904 404.911C535.373 420.313 549.806 418.206 549.806 418.206C549.806 418.206 559.471 415.562 556.04 400.007C556.04 400.007 530.412 390.326 517.071 380.185C503.73 370.045 494.644 357.618 464.62 344.209Z" fill="#21B573"/>
<path d="M554.305 404.54C544.974 402.318 525.978 393.646 503.473 381.373C486.637 372.19 467.229 360.454 464.376 356.38C462.834 354.183 462.448 352.382 463.22 351.028C464.376 349.01 467.718 348.806 469.234 348.819C469.62 348.819 469.928 349.151 469.903 349.534C469.877 349.892 469.581 350.16 469.222 350.16C467.731 350.147 465.122 350.403 464.389 351.692C463.772 352.765 464.646 354.413 465.482 355.6C467.782 358.883 484.028 369.228 504.116 380.185C521.415 389.623 543.766 400.632 554.613 403.225L554.305 404.54Z" fill="#217C58"/>
<path d="M552.544 397.95C551.49 406.124 549.356 413.557 544.717 419.266C544.717 419.266 548.701 422.114 552.338 420.07C555.114 418.512 560.474 405.741 558.43 398.921C556.104 397.644 554.099 397.21 552.544 397.95Z" fill="#217C58"/>
<path d="M496.122 405.92C496.122 405.92 504.964 404.221 507.47 401.207L514.526 415.064L494.207 422.88C494.194 422.893 492.831 408.985 496.122 405.92Z" fill="#EA9B7A"/>
<path d="M449.03 451.871L471.882 390.9C472.885 390.747 474.144 390.939 475.596 391.36C480.93 392.906 488.603 397.605 493.513 400.351C494.091 400.671 494.618 400.964 495.119 401.22C495.955 401.654 496.649 401.999 497.188 402.19C501.455 403.761 499.682 404.962 499.682 404.962C491.276 408.883 497.433 421.526 492.909 424.502C492.909 424.502 490.981 425.792 484.786 429.01C478.591 432.229 472.615 439.393 467.037 445.306C459.839 452.944 455.071 454.106 452.269 453.633C450.033 453.263 449.03 451.871 449.03 451.871Z" fill="#EBB12B"/>
<path d="M449.03 451.871L471.882 390.9C472.885 390.747 474.144 390.939 475.596 391.36L452.256 453.633C450.033 453.263 449.03 451.871 449.03 451.871Z" fill="#C77E2E"/>
<path d="M469.543 397.12L470.224 395.307C471.625 397.886 474.183 400.76 478.822 402.216C484.991 404.17 490.441 402.063 493.513 400.339C494.091 400.658 494.618 400.952 495.119 401.207C492.022 403.148 485.75 406.022 478.36 403.685C473.925 402.293 471.201 399.674 469.543 397.12Z" fill="#C77E2E"/>
<path d="M481.534 426.635C481.701 426.188 482.164 425.881 482.665 425.945C483.256 426.009 483.68 426.545 483.616 427.133L483.141 431.296C483.076 431.884 482.537 432.305 481.945 432.241C481.354 432.177 480.93 431.641 480.994 431.053L481.47 426.89C481.483 426.801 481.508 426.711 481.534 426.635Z" fill="white"/>
<path d="M486.148 424.029C486.315 423.582 486.778 423.276 487.279 423.34C487.87 423.404 488.295 423.94 488.23 424.527L487.755 428.691C487.69 429.278 487.151 429.7 486.559 429.636C485.968 429.572 485.544 429.036 485.608 428.448L486.084 424.285C486.097 424.195 486.123 424.106 486.148 424.029Z" fill="white"/>
<path d="M477.884 429.61C478.051 429.163 478.514 428.87 479.015 428.921C479.606 428.985 480.03 429.521 479.966 430.109L479.491 434.272C479.426 434.859 478.887 435.281 478.295 435.217C477.704 435.153 477.28 434.617 477.344 434.029L477.82 429.866C477.833 429.777 477.845 429.7 477.884 429.61Z" fill="white"/>
<path d="M474.311 432.637C474.478 432.19 474.941 431.896 475.442 431.948C476.033 432.011 476.458 432.548 476.393 433.135L475.918 437.299C475.853 437.886 475.314 438.308 474.722 438.244C474.131 438.18 473.707 437.644 473.771 437.056L474.247 432.893C474.26 432.803 474.285 432.714 474.311 432.637Z" fill="white"/>
<path d="M470.777 436.047C470.944 435.6 471.406 435.306 471.908 435.357C472.499 435.421 472.923 435.958 472.859 436.545L472.383 440.709C472.319 441.296 471.779 441.718 471.188 441.654C470.597 441.59 470.173 441.053 470.237 440.466L470.712 436.303C470.725 436.213 470.751 436.137 470.777 436.047Z" fill="white"/>
<path d="M467.397 439.93C467.564 439.483 468.026 439.176 468.527 439.24C469.119 439.304 469.543 439.84 469.479 440.428L469.003 444.591C468.939 445.179 468.399 445.6 467.808 445.536C467.217 445.472 466.792 444.936 466.857 444.349L467.332 440.185C467.345 440.096 467.371 440.006 467.397 439.93Z" fill="white"/>
<path d="M593.556 334.796C593.556 334.796 614.017 321.271 627.319 329.061C651.649 343.302 615.855 378.244 572.992 397.631C530.142 417.018 515.567 416.239 515.567 416.239C515.567 416.239 505.71 414.489 507.676 398.678C507.676 398.678 532.301 386.699 544.652 375.383C557.004 364.081 564.908 350.875 593.556 334.796Z" fill="#21B573"/>
<path d="M556.13 404.923C553.765 405.69 551.374 406.469 548.894 407.248C539.306 410.249 528.356 413.391 518.446 415.805L518.408 417.209C527.366 415.038 537.866 412.101 549.292 408.525C551.528 407.822 553.803 407.094 556.091 406.341L556.13 404.923Z" fill="#217C58"/>
<path d="M509.835 403.033C518.922 399.968 537.044 389.611 558.315 375.332C574.226 364.655 592.476 351.194 594.931 346.878C596.255 344.553 596.486 342.727 595.587 341.45C594.25 339.547 590.908 339.636 589.392 339.79C589.006 339.828 588.723 340.185 588.788 340.569C588.852 340.913 589.16 341.156 589.52 341.13C591.011 340.99 593.62 341.003 594.481 342.216C595.188 343.225 594.481 344.949 593.761 346.214C591.782 349.687 576.552 361.462 557.556 374.221C541.208 385.192 519.963 398.193 509.398 401.769L509.835 403.033Z" fill="#217C58"/>
<path d="M510.966 396.315C512.766 404.361 515.58 411.564 520.734 416.826C520.734 416.826 517.033 420.032 513.228 418.321C510.324 417.018 503.807 404.783 505.208 397.81C507.406 396.341 509.36 395.715 510.966 396.315Z" fill="#217C58"/>
<path d="M508.203 331.795L506.558 355.128C506.558 355.128 478.629 351.169 464.929 347.695C460.932 346.686 456.459 345.383 452.346 343.212C444.776 339.215 438.504 332.254 438.967 318.691C439.108 314.336 439.957 309.304 441.679 303.455C451.652 269.573 468.36 241.118 468.36 241.118C489.863 250.262 488.05 265.486 488.05 265.486C481.92 281.744 468.36 316.367 468.36 316.367C476.239 325.933 508.203 331.795 508.203 331.795Z" fill="#0875F7"/>
<path d="M468.36 317.108C468.232 317.108 468.09 317.069 467.975 316.993C465.597 315.537 459.132 314.017 459.068 314.004C458.67 313.915 458.425 313.519 458.528 313.136C458.618 312.74 459.017 312.51 459.402 312.599C459.634 312.65 464.17 313.71 467.165 314.988C466.728 314.017 466.008 312.982 465.019 311.859C464.749 311.552 464.787 311.105 465.083 310.837C465.391 310.569 465.841 310.607 466.111 310.901C467.833 312.842 468.81 314.604 469.08 316.278C469.132 316.558 469.003 316.839 468.772 316.993C468.643 317.069 468.502 317.108 468.36 317.108Z" fill="#084FC7"/>
<path d="M452.346 343.225C444.776 339.228 438.504 332.267 438.967 318.704C444.969 321.82 455.418 329.368 452.346 343.225Z" fill="#084FC7"/>
<path d="M490.647 328.219C490.582 328.219 490.531 328.206 490.467 328.193C476.637 324.643 468.232 317.235 467.885 316.916C467.641 316.699 467.577 316.341 467.718 316.048C477.576 296.776 483.822 281.476 487.356 267.887C487.459 267.504 487.858 267.261 488.243 267.363C488.629 267.465 488.873 267.861 488.77 268.244C485.236 281.82 479.041 297.057 469.273 316.188C471.137 317.721 479.054 323.762 490.827 326.776C491.212 326.878 491.456 327.274 491.353 327.657C491.263 328.002 490.968 328.219 490.647 328.219Z" fill="#084FC7"/>
<path d="M485.107 278.704C484.953 278.704 484.786 278.653 484.657 278.551C484.336 278.295 484.285 277.848 484.542 277.529L489.67 271.131C489.927 270.811 490.377 270.76 490.698 271.016C491.019 271.271 491.071 271.718 490.814 272.037L485.685 278.436C485.531 278.602 485.313 278.704 485.107 278.704Z" fill="#084FC7"/>
<path d="M509.013 219.879L533.818 223.404C549.935 221.808 555.063 215.435 557.698 201.974C559.021 195.205 558.147 189.228 556.849 184.784C556.515 179.726 555.346 175.358 552.942 172.472C542.056 159.432 532.468 159.943 532.468 159.943C527.597 157.721 511.506 156.201 500.89 169.011C500.556 169.292 494.078 176.112 492.587 190.416C491.148 204.068 500.311 221.488 509.013 219.879Z" fill="#39393B"/>
<path d="M522.868 163.532C522.868 163.532 525.451 140.799 505.144 143.685C491.88 145.563 483.668 163.43 495.8 171.54C507.92 179.65 522.868 163.532 522.868 163.532Z" fill="#39393B"/>
<path d="M497.831 173.877C497.728 173.877 497.625 173.851 497.523 173.8C497.214 173.634 497.098 173.238 497.266 172.932C501.969 164.439 508.678 160.684 513.472 159.024C518.678 157.236 522.726 157.453 522.893 157.453C523.253 157.479 523.523 157.772 523.497 158.13C523.472 158.487 523.176 158.756 522.816 158.73C522.662 158.717 506.995 158.002 498.397 173.545C498.281 173.749 498.062 173.877 497.831 173.877Z" fill="#EBB12B"/>
<path d="M510.953 214.758C510.953 214.758 495.132 205.959 498.242 187.644C501.353 169.33 513.485 158.309 532.083 163.621C532.083 163.621 530.283 216.559 510.953 214.758Z" fill="#39393B"/>
<path d="M554.96 181.08C554.96 181.08 556.579 196.802 553.688 199.075C550.809 201.348 547.981 195.129 547.981 195.129C547.981 195.129 551.914 181.259 554.96 181.08Z" fill="#39393B"/>
<path d="M547.673 200.505C547.673 200.505 552.389 196.393 553.957 201.438C555.525 206.482 552.351 215.767 546.477 213.302L547.673 200.505Z" fill="#D46A43"/>
<path d="M553.482 212.153C552.839 212.74 552.12 213.251 551.336 213.673C548.367 215.256 544.498 215.448 539.846 213.021C539.846 213.021 533.895 205.333 542.686 191.77C542.686 191.77 550.744 189.662 555.358 194.503C555.873 195.039 556.335 195.652 556.746 196.367C557.004 196.802 557.222 197.274 557.428 197.785C559.06 201.91 557.543 208.487 553.482 212.153Z" fill="#21B573"/>
<path d="M553.264 192.855C553.636 191.042 554.009 188.794 554.253 186.304C554.137 186.355 554.022 186.393 553.893 186.393C553.392 186.431 552.904 186.227 552.415 185.869C552.197 188.194 551.863 190.301 551.528 192.051L553.264 192.855Z" fill="white"/>
<path d="M553.482 212.153C552.839 212.74 552.12 213.251 551.336 213.673C555.41 205.282 555.526 197.619 555.358 194.503C555.873 195.039 556.335 195.652 556.746 196.367C556.746 199.892 556.207 205.691 553.482 212.153Z" fill="#217C58"/>
<path d="M533.921 223.187L531.98 236.189C531.98 236.189 523.973 246.393 505.44 229.752C507.547 224.465 510.786 217.657 509.951 212.447C509.951 212.447 511.3 213.685 513.639 215.154C514.115 215.461 514.629 215.78 515.169 216.099C519.976 218.998 527.327 222.728 533.921 223.187Z" fill="#EA9B7A"/>
<path d="M533.921 223.187L533.008 229.266C527.597 227.198 518.241 222.715 513.627 215.141C514.102 215.448 514.616 215.767 515.156 216.086C519.976 218.998 527.327 222.728 533.921 223.187Z" fill="#39393B"/>
<path d="M551.695 201.08C551.49 202.421 551.297 203.685 551.091 204.886C549.601 213.851 548.238 218.679 545.732 220.595C533.047 230.263 510.683 213.174 509.964 212.625C509.951 212.613 509.951 212.613 509.951 212.613C509.874 211.565 509.822 210.531 509.797 209.522C509.501 200.888 510.568 193.072 512.547 185.78C513.305 177.9 519.076 171.31 526.877 169.726C534.962 168.092 541.336 172.459 545.282 174.324C551.233 177.159 553.958 185.754 552.287 197.172C552.081 198.538 551.888 199.841 551.695 201.08Z" fill="#EA9B7A"/>
<path d="M540.36 211.527C533.265 211.527 530.425 204.784 530.399 204.707C530.271 204.375 530.425 204.005 530.759 203.877C531.093 203.749 531.466 203.903 531.594 204.235C531.723 204.528 534.692 211.527 542.429 210.046C542.776 209.982 543.11 210.212 543.187 210.556C543.251 210.901 543.02 211.233 542.673 211.31C541.851 211.45 541.079 211.527 540.36 211.527Z" fill="#39393B"/>
<path d="M534.897 187.185C536.722 186.559 536.35 183.89 534.422 183.762C531.144 183.558 525.875 183.634 525.438 186.265C524.795 190.109 530.913 188.513 534.782 187.223C534.82 187.21 534.859 187.198 534.897 187.185Z" fill="#39393B"/>
<path d="M544.575 188.321C543.161 187.019 544.588 184.72 546.4 185.384C549.485 186.508 554.279 188.692 553.61 191.272C552.647 195.052 547.686 191.131 544.665 188.411C544.627 188.373 544.601 188.347 544.575 188.321Z" fill="#39393B"/>
<path d="M535.129 214.669C536.427 214.988 537.519 214.745 537.596 214.72C537.828 214.669 537.969 214.439 537.918 214.209C537.866 213.979 537.635 213.839 537.404 213.89C537.378 213.89 535.257 214.362 533.651 212.957C533.471 212.804 533.201 212.817 533.047 212.996C532.892 213.175 532.905 213.443 533.085 213.596C533.741 214.183 534.46 214.503 535.129 214.669Z" fill="#D46A43"/>
<path d="M539.576 205.908C539.46 205.856 539.383 205.754 539.331 205.639C539.254 205.397 539.383 205.128 539.627 205.052L542.724 204.043L540.887 202.191C540.784 202.089 540.732 201.948 540.758 201.808L541.324 196.712C541.349 196.457 541.581 196.265 541.851 196.303C542.108 196.329 542.3 196.559 542.262 196.814L541.709 201.68L543.92 203.902C544.035 204.017 544.087 204.183 544.048 204.337C544.01 204.49 543.894 204.618 543.74 204.669L539.923 205.92C539.807 205.984 539.691 205.971 539.576 205.908Z" fill="#39393B"/>
<path d="M531.556 201.042C531.402 202.102 529.075 202.625 526.376 202.229C523.677 201.834 521.608 200.646 521.775 199.586C521.929 198.526 524.256 198.002 526.955 198.398C529.641 198.807 531.71 199.982 531.556 201.042Z" fill="#D46A43"/>
<g opacity="0.8">
<g opacity="0.8">
<g opacity="0.8">
<g opacity="0.8">
<g opacity="0.8">
<g opacity="0.8">
<g opacity="0.8">
<g opacity="0.8">
<g opacity="0.8">
<g opacity="0.8">
<g opacity="0.8">
<path opacity="0.8" d="M551.695 202.319C551.49 203.66 551.297 204.924 551.091 206.125C548.624 205.665 546.811 204.554 546.966 203.571C547.107 202.562 549.189 202.038 551.695 202.319Z" fill="#D46A43"/>
</g>
</g>
</g>
</g>
</g>
</g>
</g>
</g>
</g>
</g>
</g>
<path d="M534.191 197.261C533.972 198.717 533.137 199.79 532.314 199.675C531.492 199.56 531.016 198.283 531.222 196.827C531.44 195.371 532.276 194.298 533.098 194.413C533.921 194.528 534.409 195.805 534.191 197.261Z" fill="#39393B"/>
<path d="M548.637 199.394C548.418 200.85 547.583 201.923 546.76 201.808C545.938 201.693 545.462 200.416 545.668 198.96C545.886 197.504 546.722 196.431 547.544 196.546C548.38 196.674 548.855 197.951 548.637 199.394Z" fill="#39393B"/>
<path d="M515.606 207.44C515.516 207.593 512.933 211.731 509.964 212.625C509.951 212.613 509.951 212.613 509.951 212.613C509.874 211.565 509.822 210.531 509.797 209.522C509.899 209.509 512.753 209.433 515.606 207.44Z" fill="#39393B"/>
<path d="M514.436 196.955C514.436 196.955 509.758 188.296 504.566 193.788C500.286 198.309 504.913 212.74 512.791 208.883L514.436 196.955Z" fill="#EA9B7A"/>
<path d="M512.187 206.521C511.879 206.47 511.66 206.214 511.673 205.895C511.904 199.892 507.239 197.108 507.046 196.993C506.764 196.827 506.661 196.457 506.828 196.163C506.995 195.869 507.368 195.78 507.663 195.946C507.882 196.074 513.164 199.203 512.894 205.946C512.881 206.278 512.598 206.534 512.264 206.521C512.226 206.521 512.213 206.521 512.187 206.521Z" fill="#39393B"/>
<path d="M507.123 202.063C506.943 202.038 506.789 201.936 506.686 201.77C506.519 201.489 506.609 201.118 506.905 200.94C507.175 200.786 509.578 199.407 511.313 200.135C511.622 200.263 511.763 200.62 511.634 200.927C511.506 201.233 511.146 201.374 510.838 201.246C509.835 200.825 508.061 201.655 507.522 201.974C507.393 202.063 507.252 202.089 507.123 202.063Z" fill="#39393B"/>
<path d="M528.921 204.886C524.346 203.149 522.045 198.04 523.793 193.494C525.541 188.947 530.682 186.661 535.257 188.398C539.833 190.135 542.133 195.244 540.385 199.79C538.637 204.337 533.497 206.623 528.921 204.886ZM534.795 189.599C530.887 188.117 526.492 190.071 525.001 193.954C523.51 197.836 525.477 202.204 529.384 203.685C533.291 205.167 537.686 203.213 539.177 199.33C540.668 195.448 538.702 191.08 534.795 189.599Z" fill="white"/>
<path d="M524.076 194.669C523.999 194.669 523.921 194.643 523.844 194.605C519.038 192.421 514.526 194.081 514.475 194.107C514.141 194.235 513.768 194.069 513.64 193.736C513.511 193.404 513.678 193.034 514.012 192.906C514.218 192.83 519.089 191.029 524.384 193.443C524.705 193.596 524.847 193.979 524.705 194.298C524.577 194.541 524.333 194.682 524.076 194.669Z" fill="white"/>
<path d="M548.572 207.095C543.997 205.358 541.696 200.25 543.444 195.703C545.192 191.157 550.333 188.871 554.909 190.608C559.484 192.344 561.785 197.453 560.037 202C558.302 206.546 553.148 208.832 548.572 207.095ZM554.459 191.808C550.552 190.327 546.156 192.281 544.665 196.163C543.174 200.046 545.141 204.413 549.048 205.895C552.955 207.376 557.351 205.422 558.841 201.54C560.319 197.657 558.366 193.29 554.459 191.808Z" fill="white"/>
<path d="M539.974 196.048C539.871 195.997 539.794 195.92 539.73 195.818C539.537 195.512 539.627 195.116 539.936 194.924C540.026 194.873 542.185 193.558 544.434 195.269C544.717 195.486 544.768 195.895 544.55 196.176C544.331 196.457 543.92 196.508 543.637 196.291C542.095 195.116 540.63 196.01 540.617 196.01C540.411 196.15 540.167 196.15 539.974 196.048Z" fill="white"/>
<path d="M544.729 166.393C550.127 168.807 554.369 173.277 556.258 178.845C557.44 182.332 558.43 186.942 553.495 186.342C540.025 184.72 532.815 170.825 532.815 170.825C532.815 170.825 530.193 183.621 519.616 182.063C509.038 180.492 509.372 172.574 515.387 168.091C520.284 164.439 532.764 161.042 544.729 166.393Z" fill="#39393B"/>
<path d="M520.027 180.595C520.027 180.595 514.012 187.019 516.171 193.928C518.331 200.837 518.472 206.38 516.223 210.096C516.223 210.096 515.644 202.817 512.958 197.3C510.76 192.766 508.704 189.318 510.298 184.094C511.377 180.505 514.025 177.07 520.027 180.595Z" fill="#39393B"/>
<path d="M510.246 211.936C505.581 213.06 501.969 212.408 499.296 210.735C498.872 210.467 498.474 210.173 498.088 209.867C492.484 205.205 492.073 195.537 495.505 190.799C496.713 189.126 498.114 188.002 499.592 187.287C500.042 187.057 500.491 186.878 500.941 186.738C506.738 184.848 513.023 188.309 513.023 188.309C519.59 206.278 510.246 211.936 510.246 211.936Z" fill="#21B573"/>
<path d="M526.659 219.803C513.023 217.031 507.226 207.274 506.956 206.801C506.738 206.431 506.866 205.946 507.252 205.729C507.624 205.512 508.113 205.639 508.331 206.022C508.421 206.176 515.503 218.002 532.031 218.896C532.468 218.921 532.802 219.292 532.777 219.726C532.751 220.16 532.378 220.492 531.941 220.467C530.065 220.365 528.304 220.135 526.659 219.803Z" fill="white"/>
<path d="M536.375 220.262C536.093 221.616 534.756 222.497 533.394 222.217C532.031 221.936 531.144 220.607 531.427 219.254C531.71 217.9 533.047 217.019 534.409 217.3C535.771 217.568 536.658 218.896 536.375 220.262Z" fill="#243434"/>
<path d="M499.296 210.748C498.872 210.48 498.474 210.186 498.088 209.879C502.406 200.173 500.941 191.693 499.579 187.3C500.029 187.07 500.479 186.891 500.928 186.75C502.381 191.399 503.974 200.454 499.296 210.748Z" fill="#217C58"/>
<path d="M554.651 175.205C553.508 173.072 552.235 171.655 551.605 170.952C551.078 169.433 550.513 168.002 549.665 166.674C546.811 162.178 542.3 159.42 536.234 158.487C529.692 157.479 524.011 158.768 519.359 162.306C517.906 163.404 516.621 164.694 515.464 166.074C513.871 168.002 512.547 170.135 511.467 172.268C507.714 179.726 506.815 187.389 506.802 187.491L505.015 187.3C505.093 186.572 507.11 169.356 518.253 160.876C523.304 157.032 529.448 155.627 536.504 156.712C543.11 157.721 548.045 160.761 551.181 165.716C553.006 168.59 554.086 171.859 554.651 175.205Z" fill="white"/>
<path d="M486.842 371.756L480.622 360.007C479.066 357.082 481.239 353.57 484.567 353.595L582.284 354.643L579.405 369.687L486.842 371.756Z" fill="#39393B"/>
<path d="M577.709 368.448H490.261C488.153 368.448 486.624 366.75 486.868 364.655L492.831 310.965C493.063 308.87 494.965 307.172 497.073 307.172H584.52C586.628 307.172 588.158 308.87 587.914 310.965L581.95 364.655C581.719 366.75 579.816 368.448 577.709 368.448Z" fill="#39393B"/>
<path d="M488.963 370.76C488.937 370.76 488.899 370.76 488.873 370.76C488.474 370.709 488.179 370.339 488.23 369.943L495.492 312.446C495.543 312.05 495.916 311.756 496.314 311.808C496.713 311.859 497.008 312.229 496.957 312.625L489.695 370.122C489.644 370.492 489.323 370.76 488.963 370.76Z" fill="#564C54"/>
<path d="M531.504 338.768C531.17 343.085 534.37 346.801 538.637 347.069C542.917 347.337 546.657 344.068 546.992 339.751C547.326 335.435 544.125 331.718 539.858 331.45C535.579 331.169 531.838 334.451 531.504 338.768Z" fill="#585859"/>
<path d="M578.133 373.123H489.477C487.523 373.123 486.032 371.411 486.29 369.496L487.138 363.353H582.284L581.32 370.351C581.102 371.948 579.739 373.123 578.133 373.123Z" fill="#39393B"/>
<path d="M513.884 355.792L513.241 358.857H516.159L515.837 362.51H512.457L511.75 365.843H507.882L508.589 362.51H506.198L505.491 365.843H501.623L502.329 362.51H499.412L499.733 358.87H503.113L503.756 355.805H500.839L501.16 352.152H504.54L505.247 348.819H509.115L508.409 352.152H510.799L511.506 348.819H515.375L514.668 352.152H517.585L517.264 355.805L513.884 355.792ZM510.028 355.792H507.638L506.995 358.857H509.385L510.028 355.792Z" fill="#EBB12B"/>
<path d="M602.231 270.939C602.231 284.17 613.027 294.911 626.355 294.911C639.67 294.911 650.479 284.183 650.479 270.939C650.479 257.708 639.683 246.967 626.355 246.967C613.027 246.967 602.231 257.695 602.231 270.939Z" fill="#DF615C"/>
<path d="M614.017 290.543L601.049 293.263L606.665 282.165L614.017 290.543Z" fill="#DF615C"/>
<path d="M628.399 265.792C628.399 264.669 627.306 264.094 625.957 264.094C624.389 264.094 622.936 265.039 622.165 266.559L615.675 263.34C617.538 259.867 621.214 257.478 627.049 257.478C632.768 257.478 637.035 259.867 637.035 264.4C637.035 269.943 631.2 270.914 631.2 273.711H623.695C623.695 269.305 628.399 268.002 628.399 265.792ZM622.641 279.407C622.641 276.98 624.607 275.128 627.448 275.128C630.288 275.128 632.254 276.98 632.254 279.407C632.254 281.795 630.288 283.749 627.448 283.749C624.607 283.749 622.641 281.795 622.641 279.407Z" fill="white"/>
<path d="M362.482 407.146C362.482 407.146 352.625 391.756 328.706 377.772C311.805 367.899 301.96 340.007 301.96 340.007C301.96 340.007 334.336 341.412 348.409 360.99C362.482 380.581 362.482 407.146 362.482 407.146Z" fill="#21B573"/>
<path d="M362.598 407.567C362.379 407.567 362.187 407.427 362.135 407.21C357.585 390.134 347.625 377.759 340.068 370.377C331.881 362.382 324.696 358.385 324.619 358.346C324.388 358.219 324.298 357.925 324.426 357.695C324.555 357.465 324.85 357.376 325.082 357.504C325.159 357.542 332.459 361.603 340.736 369.7C348.383 377.159 358.459 389.687 363.061 406.967C363.125 407.222 362.971 407.491 362.714 407.554C362.675 407.554 362.636 407.567 362.598 407.567Z" fill="#39393B"/>
<path d="M358.241 406.801C358.241 406.801 355.426 401.207 342.754 402.599C330.081 404.004 323.051 410.99 300.534 398.397C300.534 398.397 317.422 384.413 335.724 387.21C354.013 390.019 355.426 397.005 358.241 406.801Z" fill="#21B573"/>
<path d="M358.305 407.273C358.151 407.273 357.984 407.197 357.894 407.044C357.843 406.954 352.175 398.104 343.062 396.456C327.138 393.583 316.291 398.64 316.188 398.691C315.944 398.806 315.661 398.704 315.545 398.461C315.43 398.219 315.533 397.938 315.777 397.823C315.892 397.772 326.997 392.574 343.242 395.511C352.779 397.235 358.485 406.15 358.717 406.533C358.858 406.763 358.794 407.056 358.562 407.197C358.472 407.261 358.395 407.273 358.305 407.273Z" fill="#39393B"/>
<path d="M363.768 405.447C363.768 405.447 362.662 399.291 373.664 392.893C384.666 386.494 394.511 387.925 405.011 364.464C405.011 364.464 383.059 363.263 370.065 376.367C357.072 389.483 360.143 395.92 363.768 405.447Z" fill="#21B573"/>
<path d="M363.716 405.958C363.472 405.958 363.254 405.766 363.241 405.524C363.202 405.077 362.418 394.54 369.037 387.503C380.309 375.511 392.339 373.085 392.454 373.059C392.711 373.008 392.968 373.174 393.02 373.442C393.071 373.698 392.904 373.953 392.634 374.004C392.519 374.03 380.784 376.405 369.731 388.155C363.408 394.885 364.179 405.345 364.192 405.447C364.218 405.715 364.012 405.945 363.755 405.958C363.742 405.958 363.729 405.958 363.716 405.958Z" fill="#39393B"/>
<path d="M376.723 413.046H345.877C344.052 413.046 342.574 411.565 342.574 409.764V408.385C342.574 406.571 344.065 405.102 345.877 405.102H376.723C378.548 405.102 380.026 406.584 380.026 408.385V409.764C380.039 411.577 378.548 413.046 376.723 413.046Z" fill="#DF615C"/>
<path d="M361.454 481.539C336.289 481.539 320.275 477.554 322.846 459.942C324.478 448.768 333.256 437.81 339.451 431.296C340.325 430.377 341.147 429.547 341.88 428.819C344.181 426.558 345.723 425.268 345.723 425.268L345.8 424.86L346.237 422.382L346.738 419.534L347.895 413.033L348.293 410.76L361.454 410.185L375.181 410.76L375.489 413.033L375.977 416.597L376.774 422.369L377.121 424.847L377.173 425.255C377.173 425.255 378.728 426.558 381.016 428.806C381.761 429.534 382.584 430.364 383.458 431.284C389.652 437.797 398.431 448.742 400.063 459.93C402.633 477.567 386.619 481.539 361.454 481.539Z" fill="#DF615C"/>
<path d="M377.121 424.872H345.787L346.224 422.395H376.774L377.121 424.872Z" fill="#A92F4B"/>
<path d="M383.457 431.296H339.438C340.312 430.377 341.135 429.547 341.867 428.819H381.016C381.761 429.559 382.584 430.39 383.457 431.296Z" fill="#A92F4B"/>
<path d="M375.977 416.622L346.738 419.547L347.895 413.046H375.489L375.977 416.622Z" fill="#A92F4B"/>
<path d="M263.329 186.968C262.725 181.604 258.291 177.262 252.764 176.662C248.472 176.189 243.498 176.01 239.655 176.904C238.614 177.147 237.65 177.466 236.802 177.901L237.02 178.884C240.015 177.288 245.387 176.841 252.649 177.632C254.975 177.888 257.096 178.858 258.766 180.314C260.424 181.77 261.632 183.699 262.147 185.883C262.237 186.279 262.314 186.675 262.352 187.083C262.378 187.326 262.404 187.569 262.404 187.798L263.38 187.53C263.368 187.326 263.342 187.147 263.329 186.968ZM241.313 187.326C240.555 187.862 239.835 188.309 239.154 188.654L239.359 189.65C240.156 189.254 241.004 188.743 241.891 188.118C246.055 185.129 248.793 187.607 251.71 190.238C251.839 190.353 251.967 190.48 252.096 190.595L253.214 190.289C252.931 190.033 252.649 189.778 252.366 189.523C249.448 186.892 246.12 183.878 241.313 187.326Z" fill="#A92F4B"/>
</g>
<defs>
<filter id="filter0_d_643_5676" x="0" y="0" width="676" height="494.277" filterUnits="userSpaceOnUse" color-interpolation-filters="sRGB">
<feFlood flood-opacity="0" result="BackgroundImageFix"/>
<feColorMatrix in="SourceAlpha" type="matrix" values="0 0 0 0 0 0 0 0 0 0 0 0 0 0 0 0 0 0 127 0" result="hardAlpha"/>
<feOffset dy="4"/>
<feGaussianBlur stdDeviation="2"/>
<feComposite in2="hardAlpha" operator="out"/>
<feColorMatrix type="matrix" values="0 0 0 0 0 0 0 0 0 0 0 0 0 0 0 0 0 0 0.25 0"/>
<feBlend mode="normal" in2="BackgroundImageFix" result="effect1_dropShadow_643_5676"/>
<feBlend mode="normal" in="SourceGraphic" in2="effect1_dropShadow_643_5676" result="shape"/>
</filter>
</defs>
</svg>
